<svg xmlns="http://www.w3.org/2000/svg"  viewBox="0 0 100 100" width="200px" height="200px"><path fill="#c8ede6" d="M87.234,55.551c0.3-0.616,0.566-1.264,0.796-1.943c2.633-7.77-1.349-17.078-9.733-19.325 C77.391,22.9,69.391,15.09,60.356,13.758c-10.341-1.525-19.814,5.044-22.966,15.485c-3.799-1.346-7.501-1.182-10.99,0.857 c-1.583,0.732-3.031,1.812-4.33,3.233c-1.907,2.086-3.147,4.719-3.652,7.495c-0.748,0.118-1.483,0.236-2.176,0.484 c-4.04,1.449-6.589,4.431-7.288,8.923c-0.435,2.797,0.443,5.587,0.933,6.714c1.935,4.455,6.422,6.98,10.981,6.312 c0.227-0.033,0.557,0.069,0.752,0.233c0.241,7.12,3.698,13.417,8.884,17.014c8.321,5.772,19.027,3.994,25.781-3.921 c2.894,2.96,6.338,4.398,10.384,3.876c4.023-0.519,7.147-2.739,9.426-6.349c1.053,0.283,2.051,0.691,3.083,0.804 c4.042,0.442,7.297-1.184,9.732-4.8c0.083-0.124,0.203-0.219,0.306-0.328c0.348-0.798,0.696-1.596,1.044-2.394 c0.155-1.211,0.429-2.423,0.443-3.632C90.742,60.508,89.411,57.54,87.234,55.551z"/><path fill="#fdfcef" d="M77.17,75.423c0,0,11.691,0,11.762,0c2.7,0,4.888-2.189,4.888-4.889 c0-2.355-1.666-4.321-3.884-4.784c0.026-0.206,0.043-0.415,0.043-0.628c0-2.796-2.267-5.063-5.063-5.063 c-1.651,0-3.113,0.794-4.037,2.017c-0.236-3.113-3.017-5.514-6.27-5.116c-2.379,0.291-4.346,2.13-4.784,4.486 c-0.14,0.756-0.126,1.489,0.014,2.177c-0.638-0.687-1.546-1.119-2.557-1.119c-1.85,0-3.361,1.441-3.48,3.261 c-0.84-0.186-1.754-0.174-2.717,0.188c-1.84,0.691-3.15,2.423-3.227,4.387c-0.109,2.789,2.12,5.085,4.885,5.085 c0.21,0,0.948,0,1.118,0h10.151"/><path fill="#472b29" d="M88.932,75.923H77.17c-0.276,0-0.5-0.224-0.5-0.5s0.224-0.5,0.5-0.5h11.762 c2.42,0,4.389-1.969,4.389-4.389c0-2.066-1.466-3.873-3.486-4.295c-0.255-0.053-0.426-0.293-0.394-0.552 c0.023-0.186,0.039-0.374,0.039-0.565c0-2.517-2.047-4.563-4.562-4.563c-1.438,0-2.765,0.663-3.638,1.818 c-0.125,0.166-0.338,0.237-0.54,0.178c-0.199-0.059-0.342-0.234-0.357-0.441c-0.104-1.377-0.779-2.671-1.85-3.549 c-1.083-0.888-2.456-1.282-3.86-1.109c-2.166,0.266-3.956,1.943-4.353,4.081c-0.124,0.667-0.12,1.335,0.013,1.986 c0.044,0.22-0.062,0.442-0.262,0.544c-0.2,0.104-0.443,0.06-0.595-0.104c-0.575-0.618-1.353-0.959-2.19-0.959 c-1.569,0-2.878,1.228-2.981,2.794c-0.01,0.146-0.082,0.279-0.199,0.366c-0.117,0.089-0.268,0.12-0.408,0.089 c-0.841-0.185-1.637-0.132-2.433,0.167c-1.669,0.627-2.835,2.209-2.903,3.938c-0.047,1.207,0.387,2.35,1.221,3.218 c0.835,0.869,1.959,1.348,3.164,1.348h11.269c0.276,0,0.5,0.224,0.5,0.5s-0.224,0.5-0.5,0.5H62.745 c-1.479,0-2.858-0.588-3.884-1.654c-1.025-1.066-1.558-2.469-1.5-3.95c0.083-2.126,1.51-4.069,3.55-4.835 c0.8-0.301,1.626-0.398,2.468-0.299c0.377-1.822,1.998-3.182,3.905-3.182c0.684,0,1.354,0.18,1.944,0.51 c0-0.386,0.035-0.772,0.106-1.159c0.477-2.562,2.621-4.573,5.215-4.891c1.679-0.205,3.32,0.266,4.616,1.328 c1.003,0.823,1.716,1.951,2.038,3.193c1.012-0.916,2.319-1.426,3.714-1.426c3.067,0,5.562,2.496,5.562,5.563 c0,0.083-0.002,0.166-0.007,0.248c2.254,0.673,3.848,2.776,3.848,5.164C94.321,73.507,91.904,75.923,88.932,75.923z"/><path fill="#fdfcef" d="M74.337,64.655c-1.808-0.119-3.365,1.13-3.476,2.789c-0.014,0.206-0.005,0.409,0.025,0.606 c-0.349-0.394-0.865-0.661-1.458-0.7c-1.085-0.071-2.022,0.645-2.158,1.62c-0.197-0.054-0.403-0.09-0.616-0.104 c-1.582-0.104-2.944,0.989-3.042,2.441"/><path fill="#472b29" d="M63.613,71.556c-0.006,0-0.012,0-0.017-0.001c-0.138-0.009-0.242-0.128-0.233-0.266 c0.107-1.587,1.588-2.789,3.308-2.674c0.137,0.009,0.273,0.026,0.409,0.053c0.274-0.968,1.256-1.645,2.366-1.567 c0.425,0.027,0.823,0.159,1.164,0.382c0-0.019,0.002-0.037,0.003-0.056c0.12-1.795,1.787-3.16,3.742-3.021 c0.138,0.009,0.242,0.128,0.233,0.266c-0.009,0.138-0.124,0.255-0.266,0.232c-1.651-0.105-3.108,1.037-3.21,2.557 c-0.012,0.184-0.004,0.37,0.023,0.553c0.017,0.109-0.041,0.217-0.141,0.264s-0.219,0.022-0.293-0.061 c-0.323-0.365-0.78-0.584-1.287-0.617c-0.951-0.034-1.775,0.556-1.894,1.404c-0.01,0.071-0.05,0.135-0.11,0.175 c-0.06,0.039-0.133,0.051-0.204,0.032c-0.187-0.051-0.377-0.083-0.567-0.097c-1.44-0.092-2.687,0.896-2.775,2.209 C63.853,71.455,63.743,71.556,63.613,71.556z"/><path fill="#fdfcef" d="M90.912,66.323c-1.699-0.801-3.664-0.234-4.389,1.267c-0.09,0.186-0.157,0.379-0.201,0.574"/><path fill="#472b29" d="M86.322,68.414c-0.018,0-0.037-0.002-0.056-0.006c-0.134-0.031-0.219-0.165-0.188-0.3 c0.049-0.217,0.123-0.428,0.219-0.627c0.783-1.621,2.902-2.239,4.721-1.385c0.125,0.06,0.179,0.208,0.12,0.333 c-0.059,0.126-0.209,0.176-0.333,0.12c-1.574-0.744-3.394-0.227-4.058,1.149c-0.08,0.165-0.141,0.34-0.182,0.521 C86.539,68.336,86.436,68.414,86.322,68.414z"/><path fill="#fff" d="M84.405 50H74.5c-.276 0-.5-.224-.5-.5s.224-.5.5-.5h9.905c.276 0 .5.224.5.5S84.682 50 84.405 50zM87.5 50h-1c-.276 0-.5-.224-.5-.5s.224-.5.5-.5h1c.276 0 .5.224.5.5S87.777 50 87.5 50zM92.491 52H83.5c-.276 0-.5-.224-.5-.5s.224-.5.5-.5h8.991c.276 0 .5.224.5.5S92.767 52 92.491 52zM81.5 52h-1c-.276 0-.5-.224-.5-.5s.224-.5.5-.5h1c.276 0 .5.224.5.5S81.777 52 81.5 52zM78.5 52h-2c-.276 0-.5-.224-.5-.5s.224-.5.5-.5h2c.276 0 .5.224.5.5S78.777 52 78.5 52zM84.5 54h-2c-.276 0-.5-.224-.5-.5s.224-.5.5-.5h2c.276 0 .5.224.5.5S84.776 54 84.5 54zM87.5 45c-.177 0-.823 0-1 0-.276 0-.5.224-.5.5 0 .276.224.5.5.5.177 0 .823 0 1 0 .276 0 .5-.224.5-.5C88 45.224 87.776 45 87.5 45zM87.5 47c-.177 0-4.823 0-5 0-.276 0-.5.224-.5.5 0 .276.224.5.5.5.177 0 4.823 0 5 0 .276 0 .5-.224.5-.5C88 47.224 87.776 47 87.5 47zM92.5 49c-.177 0-2.823 0-3 0-.276 0-.5.224-.5.5 0 .276.224.5.5.5.177 0 2.823 0 3 0 .276 0 .5-.224.5-.5C93 49.224 92.776 49 92.5 49z"/><g><path fill="#fdfcef" d="M29.178,41.287c1.883,0,3.517,0,3.54,0c2.11,0,3.821-1.674,3.821-3.739 c0-1.802-1.302-3.305-3.035-3.66c0.02-0.158,0.034-0.317,0.034-0.48c0-2.139-1.772-3.873-3.957-3.873 c-1.29,0-2.433,0.607-3.155,1.543c-0.185-2.381-2.358-4.218-4.9-3.913c-1.859,0.223-3.397,1.629-3.739,3.431 c-0.11,0.578-0.098,1.139,0.011,1.665c-0.498-0.525-1.208-0.856-1.998-0.856c-1.446,0-2.627,1.102-2.72,2.494 c-0.657-0.142-1.371-0.133-2.123,0.143c-1.438,0.528-2.462,1.853-2.522,3.356c-0.085,2.133,1.657,3.889,3.818,3.889 c0.164,0,0.741,0,0.874,0h7.934 M22.701,41.287h0.36"/><path fill="#472b29" d="M32.718,41.788h-3.54c-0.276,0-0.5-0.224-0.5-0.5s0.224-0.5,0.5-0.5h3.54 c1.831,0,3.321-1.453,3.321-3.239c0-1.524-1.108-2.858-2.636-3.17c-0.256-0.053-0.429-0.294-0.396-0.554 c0.018-0.137,0.03-0.275,0.03-0.417c0-1.86-1.551-3.373-3.457-3.373c-1.092,0-2.098,0.491-2.76,1.349 c-0.126,0.164-0.341,0.231-0.539,0.174c-0.198-0.06-0.339-0.234-0.355-0.44c-0.079-1.02-0.565-1.944-1.369-2.604 c-0.829-0.68-1.885-0.979-2.973-0.853c-1.646,0.197-3.006,1.442-3.307,3.027c-0.094,0.495-0.091,0.99,0.009,1.472 c0.045,0.219-0.06,0.441-0.258,0.545c-0.197,0.102-0.44,0.063-0.594-0.1c-0.428-0.451-1.009-0.7-1.635-0.7 c-1.169,0-2.145,0.891-2.221,2.027c-0.01,0.146-0.082,0.278-0.198,0.366c-0.116,0.087-0.264,0.12-0.406,0.089 c-0.639-0.138-1.243-0.098-1.846,0.125c-1.262,0.463-2.144,1.631-2.195,2.905c-0.035,0.876,0.283,1.709,0.895,2.346 c0.635,0.66,1.496,1.024,2.423,1.024h8.807c0.276,0,0.5,0.224,0.5,0.5s-0.224,0.5-0.5,0.5h-8.807 c-1.185,0-2.331-0.485-3.144-1.331c-0.803-0.836-1.219-1.929-1.173-3.078c0.067-1.675,1.212-3.204,2.849-3.806 c0.61-0.225,1.24-0.304,1.88-0.244c0.344-1.396,1.629-2.424,3.135-2.424c0.493,0,0.977,0.113,1.414,0.323 c0.009-0.242,0.037-0.484,0.083-0.727c0.381-2.009,2.096-3.585,4.17-3.833c1.365-0.167,2.685,0.218,3.726,1.071 c0.748,0.613,1.278,1.409,1.546,2.302c0.791-0.648,1.786-1.007,2.842-1.007c2.458,0,4.457,1.962,4.457,4.373 c0,0.034,0,0.068-0.001,0.103c1.764,0.555,3.003,2.188,3.003,4.038C37.039,39.886,35.101,41.788,32.718,41.788z M23.061,41.788 h-0.36c-0.276,0-0.5-0.224-0.5-0.5s0.224-0.5,0.5-0.5h0.36c0.276,0,0.5,0.224,0.5,0.5S23.337,41.788,23.061,41.788z"/><g><path fill="#472b29" d="M31.011,35.984c-0.018,0-0.036-0.002-0.055-0.006c-0.135-0.03-0.22-0.164-0.189-0.299 c0.037-0.164,0.094-0.325,0.17-0.479c0.604-1.224,2.272-1.677,3.722-1.007c0.125,0.058,0.18,0.206,0.122,0.331 c-0.058,0.126-0.207,0.179-0.332,0.122c-1.201-0.556-2.577-0.208-3.063,0.774c-0.058,0.118-0.102,0.242-0.13,0.367 C31.229,35.905,31.126,35.984,31.011,35.984z"/></g><g><path fill="#472b29" d="M25.852,41.788h-1.107c-0.276,0-0.5-0.224-0.5-0.5s0.224-0.5,0.5-0.5h1.107 c0.276,0,0.5,0.224,0.5,0.5S26.129,41.788,25.852,41.788z"/></g></g><g><path fill="#fff" d="M47.405 23H37.5c-.276 0-.5-.224-.5-.5s.224-.5.5-.5h9.905c.276 0 .5.224.5.5S47.682 23 47.405 23zM50.5 23h-1c-.276 0-.5-.224-.5-.5s.224-.5.5-.5h1c.276 0 .5.224.5.5S50.777 23 50.5 23zM55.491 25H46.5c-.276 0-.5-.224-.5-.5s.224-.5.5-.5h8.991c.276 0 .5.224.5.5S55.767 25 55.491 25zM44.5 25h-1c-.276 0-.5-.224-.5-.5s.224-.5.5-.5h1c.276 0 .5.224.5.5S44.777 25 44.5 25zM41.5 25h-2c-.276 0-.5-.224-.5-.5s.224-.5.5-.5h2c.276 0 .5.224.5.5S41.777 25 41.5 25zM47.5 27h-2c-.276 0-.5-.224-.5-.5s.224-.5.5-.5h2c.276 0 .5.224.5.5S47.776 27 47.5 27zM50.5 18c-.177 0-.823 0-1 0-.276 0-.5.224-.5.5 0 .276.224.5.5.5.177 0 .823 0 1 0 .276 0 .5-.224.5-.5C51 18.224 50.776 18 50.5 18zM50.5 20c-.177 0-4.823 0-5 0-.276 0-.5.224-.5.5 0 .276.224.5.5.5.177 0 4.823 0 5 0 .276 0 .5-.224.5-.5C51 20.224 50.776 20 50.5 20zM55.5 22c-.177 0-2.823 0-3 0-.276 0-.5.224-.5.5 0 .276.224.5.5.5.177 0 2.823 0 3 0 .276 0 .5-.224.5-.5C56 22.224 55.776 22 55.5 22z"/></g><g><path fill="#78cdd4" d="M39.741,72.656c-3.037,0-5.837-1.128-7.883-3.176c-2.188-2.186-3.304-5.193-3.144-8.471 c0.149-3.083,1.461-6.09,3.601-8.262l0.063-0.038l0.048-0.07l19.429-19.192c0.298-0.295,0.693-0.457,1.112-0.457 c0.427,0,0.827,0.167,1.128,0.472c0.614,0.62,0.607,1.626-0.015,2.24L34.537,55.011c-1.579,1.62-2.546,3.856-2.657,6.153 c-0.116,2.374,0.672,4.531,2.22,6.075c1.446,1.448,3.46,2.247,5.67,2.247c0.132,0,0.265-0.003,0.397-0.009 c2.326-0.105,4.589-1.095,6.211-2.714l23.901-24.481c1.023-1.042,1.687-2.41,1.823-3.763c0.078-0.758,0.048-2.192-1.035-3.275 c-0.066-0.066-0.121-0.14-0.174-0.215l-0.069-0.099l-0.1-0.069c-0.072-0.052-0.146-0.105-0.211-0.171 c-0.778-0.776-1.851-1.204-3.021-1.204c-1.364,0-2.759,0.582-3.824,1.598l-0.042,0.04l-0.07,0.09l-21.69,21.82l-0.066,0.033 l-0.072,0.109c-0.633,0.691-0.614,1.769,0.054,2.438c0.45,0.45,0.974,0.518,1.245,0.518c0.272,0,0.795-0.067,1.243-0.517 c0.071-0.071,0.15-0.135,0.232-0.19l0.113-0.076l0.076-0.113c0.058-0.086,0.124-0.167,0.201-0.243l16.1-15.88 c0.298-0.294,0.692-0.456,1.11-0.456c0.428,0,0.83,0.168,1.131,0.473c0.612,0.621,0.605,1.626-0.017,2.24L47.115,61.25 c-0.07,0.068-0.147,0.127-0.227,0.182l-0.111,0.075l-0.074,0.11c-0.056,0.081-0.116,0.16-0.188,0.232 c-0.934,0.936-2.171,1.449-3.488,1.45c-1.318,0-2.557-0.514-3.488-1.446c-1.784-1.786-1.896-4.708-0.256-6.651 c0.109-0.158,0.177-0.241,0.253-0.317l21.66-21.791l0.071-0.093c1.711-1.726,3.959-2.68,6.218-2.68 c2.026,0,3.898,0.756,5.27,2.129c0.065,0.065,0.12,0.14,0.172,0.213l0.069,0.099l0.099,0.069c0.074,0.053,0.147,0.106,0.214,0.173 c1.488,1.487,2.181,3.562,1.948,5.839c-0.215,2.099-1.191,4.12-2.75,5.692L48.584,69.038c-2.171,2.151-5.183,3.465-8.271,3.604 C40.119,72.651,39.93,72.656,39.741,72.656z"/><path fill="#472b29" d="M67.484,31.021c1.84,0,3.536,0.683,4.776,1.924c0.021,0.021,0.052,0.061,0.094,0.12l0.14,0.198 l0.198,0.14c0.06,0.042,0.1,0.074,0.122,0.095c1.337,1.336,1.957,3.208,1.746,5.272c-0.199,1.941-1.105,3.813-2.571,5.292 l-0.057,0.061L48.218,68.413l-0.006,0.004l-0.086,0.088l-0.019,0.019l-0.016,0.018c-2.049,2.031-4.893,3.27-7.818,3.402 c-0.178,0.009-0.355,0.013-0.531,0.013c-2.849,0-5.473-1.055-7.389-2.971c-2.045-2.043-3.089-4.863-2.939-7.941 c0.139-2.861,1.335-5.65,3.318-7.72l0.064-0.035l0.131-0.161l19.419-19.183c0.167-0.165,0.387-0.255,0.621-0.255 c0.238,0,0.461,0.093,0.63,0.264c0.166,0.167,0.256,0.39,0.255,0.626c-0.001,0.236-0.095,0.458-0.263,0.624L34.148,54.409 l-0.067,0.065l-0.012,0.015c-1.716,1.743-2.767,4.159-2.887,6.641c-0.126,2.573,0.735,4.919,2.422,6.604 c1.581,1.582,3.771,2.453,6.168,2.453c0.14,0,0.282-0.003,0.429-0.009c2.496-0.114,4.928-1.177,6.683-2.93l23.767-24.344l0.001,0 l0.072-0.072l0.029-0.029l0.017-0.02c1.136-1.154,1.875-2.678,2.029-4.191c0.09-0.883,0.049-2.557-1.236-3.841 c-0.038-0.038-0.067-0.082-0.097-0.124l-0.139-0.196l-0.196-0.139c-0.041-0.029-0.084-0.057-0.123-0.096 c-0.91-0.909-2.159-1.409-3.516-1.409c-1.542,0-3.113,0.653-4.308,1.792l-0.04,0.039l-0.037,0.042 c-0.026,0.029-0.051,0.059-0.076,0.091L41.275,56.635l-0.089,0.092l-0.01,0.016c-0.849,0.967-0.813,2.445,0.107,3.364 c0.465,0.468,1.084,0.725,1.742,0.725c0.658,0,1.276-0.256,1.74-0.723c0.034-0.034,0.076-0.068,0.129-0.104l0.224-0.152 l0.151-0.225c0.033-0.05,0.071-0.095,0.112-0.136L61.484,43.61c0.165-0.164,0.384-0.253,0.617-0.253 c0.239,0,0.464,0.094,0.632,0.264c0.342,0.347,0.338,0.908-0.009,1.25l-16.101,15.88c-0.03,0.029-0.072,0.063-0.129,0.101 l-0.222,0.151l-0.15,0.223c-0.037,0.054-0.071,0.098-0.105,0.131c-0.799,0.8-1.861,1.241-2.991,1.242 c-1.13,0-2.193-0.441-2.992-1.241c-1.529-1.531-1.625-4.037-0.217-5.705l0.055-0.065l0.047-0.072 c0.033-0.05,0.071-0.098,0.114-0.141L61.66,33.619l0.053-0.053l0.047-0.058l0.078-0.101 C63.366,31.891,65.421,31.021,67.484,31.021 M67.484,29.621c-2.362,0-4.791,0.949-6.663,2.823 c-0.059,0.059-0.103,0.125-0.154,0.188L39.04,54.389c-0.112,0.113-0.209,0.234-0.293,0.362c-1.866,2.21-1.783,5.516,0.296,7.597 C40.106,63.413,41.52,64,43.025,64h0.001c1.505-0.001,2.918-0.588,3.981-1.653c0.105-0.105,0.195-0.219,0.275-0.337 c0.113-0.077,0.223-0.162,0.324-0.262l16.102-15.881c0.898-0.886,0.908-2.332,0.022-3.23c-0.448-0.453-1.038-0.681-1.629-0.681 c-0.579,0-1.157,0.219-1.602,0.658l-16.102,15.88c-0.11,0.109-0.207,0.227-0.29,0.351c-0.118,0.08-0.231,0.17-0.336,0.275 c-0.269,0.27-0.583,0.31-0.747,0.31c-0.164,0-0.479-0.04-0.75-0.313c-0.414-0.414-0.414-1.088,0-1.503 c0.002-0.001,0.003-0.004,0.005-0.006l21.792-21.922c0.029-0.029,0.05-0.064,0.077-0.095c0.973-0.927,2.194-1.405,3.343-1.405 c0.951,0,1.853,0.328,2.526,1c0.095,0.095,0.198,0.173,0.304,0.248c0.075,0.106,0.155,0.21,0.25,0.305 c0.878,0.877,0.899,2.075,0.834,2.71c-0.124,1.215-0.731,2.446-1.663,3.38c-0.003,0.003-0.005,0.006-0.008,0.01 c-0.003,0.003-0.008,0.006-0.011,0.009L45.882,66.269c-1.499,1.497-3.593,2.412-5.745,2.51c-0.123,0.005-0.244,0.008-0.366,0.008 c-2.033,0-3.85-0.713-5.178-2.042c-1.405-1.403-2.12-3.373-2.014-5.546c0.105-2.164,1.027-4.268,2.531-5.771 c0.002-0.002,0.003-0.003,0.004-0.005L54.572,36.2c0.898-0.887,0.907-2.333,0.02-3.23c-0.447-0.453-1.036-0.679-1.625-0.679 c-0.58,0-1.16,0.22-1.605,0.659L31.888,52.186c-0.001,0.001-0.001,0.002-0.002,0.002c-0.003,0.003-0.006,0.004-0.009,0.007 c-2.294,2.297-3.702,5.497-3.862,8.78c-0.169,3.478,1.02,6.674,3.347,9c2.192,2.193,5.149,3.381,8.378,3.381 c0.2,0,0.4-0.004,0.602-0.015c3.281-0.148,6.477-1.55,8.773-3.846c0.003-0.003,0.005-0.007,0.008-0.01 c0.003-0.003,0.008-0.005,0.011-0.009l23.857-24.436c0.004-0.004,0.006-0.009,0.01-0.013c1.67-1.684,2.718-3.853,2.949-6.115 c0.254-2.491-0.509-4.765-2.149-6.405c-0.095-0.095-0.198-0.174-0.304-0.249c-0.075-0.106-0.154-0.209-0.249-0.304 C71.689,30.394,69.613,29.621,67.484,29.621L67.484,29.621z"/></g><g><path fill="#472b29" d="M25.927,53.66c-0.073,0-0.147-0.016-0.218-0.05l-6.854-3.32c-0.249-0.121-0.353-0.42-0.232-0.668 c0.122-0.249,0.42-0.354,0.668-0.232l6.854,3.32c0.249,0.121,0.353,0.42,0.232,0.668C26.29,53.557,26.112,53.66,25.927,53.66z"/></g><g><path fill="#472b29" d="M18.449,57.73c-0.022,0-0.044-0.001-0.066-0.004l-1.724-0.228c-0.273-0.036-0.467-0.288-0.431-0.562 c0.036-0.274,0.288-0.472,0.562-0.431l1.724,0.228c0.273,0.036,0.467,0.288,0.431,0.562C18.911,57.548,18.696,57.73,18.449,57.73z"/></g><g><path fill="#472b29" d="M24.276,58.497c-0.022,0-0.044-0.001-0.066-0.004l-3.82-0.503c-0.273-0.036-0.467-0.287-0.431-0.562 c0.036-0.273,0.29-0.471,0.562-0.431l3.82,0.503c0.273,0.036,0.467,0.287,0.431,0.562C24.738,58.313,24.523,58.497,24.276,58.497z"/></g><g><path fill="#472b29" d="M23.838,68.843c-0.188,0-0.37-0.107-0.454-0.291c-0.115-0.251-0.006-0.548,0.245-0.663l1.579-0.728 c0.248-0.114,0.548-0.007,0.663,0.245c0.115,0.251,0.006,0.548-0.245,0.663l-1.579,0.728 C23.979,68.828,23.908,68.843,23.838,68.843z"/></g><g><path fill="#472b29" d="M18.5,71.302c-0.188,0-0.37-0.107-0.454-0.291c-0.115-0.251-0.006-0.548,0.245-0.663l3.5-1.612 c0.249-0.114,0.548-0.007,0.663,0.245c0.115,0.251,0.006,0.548-0.245,0.663l-3.5,1.612C18.642,71.287,18.57,71.302,18.5,71.302z"/></g><g><path fill="#472b29" d="M16.703,64.308c-0.258,0-0.477-0.198-0.497-0.46c-0.022-0.274,0.183-0.516,0.458-0.538l7.592-0.615 c0.274-0.014,0.517,0.183,0.538,0.458c0.022,0.274-0.183,0.516-0.458,0.538l-7.592,0.615C16.73,64.307,16.717,64.308,16.703,64.308 z"/></g></svg>