<svg xmlns="http://www.w3.org/2000/svg"  viewBox="0 0 100 100" width="200px" height="200px"><path fill="#c7ede6" d="M87.215,56.71C88.35,54.555,89,52.105,89,49.5c0-6.621-4.159-12.257-10.001-14.478 C78.999,35.015,79,35.008,79,35c0-11.598-9.402-21-21-21c-9.784,0-17.981,6.701-20.313,15.757C36.211,29.272,34.638,29,33,29 c-7.692,0-14.023,5.793-14.89,13.252C12.906,43.353,9,47.969,9,53.5C9,59.851,14.149,65,20.5,65c0.177,0,0.352-0.012,0.526-0.022 C21.022,65.153,21,65.324,21,65.5C21,76.822,30.178,86,41.5,86c6.437,0,12.175-2.972,15.934-7.614C59.612,80.611,62.64,82,66,82 c4.65,0,8.674-2.65,10.666-6.518C77.718,75.817,78.837,76,80,76c6.075,0,11-4.925,11-11C91,61.689,89.53,58.727,87.215,56.71z"/><path fill="#fdfcef" d="M67,66h-5.75c-2.485,0.75-4.5-1.265-4.5-3.75c0-2.333,1.782-4.229,4.055-4.455 c-0.022-0.181-0.055-0.358-0.055-0.545c0-2.485,2.015-4.5,4.5-4.5c1.438,0,2.703,0.686,3.527,1.736 c0.14-2.636,2.302-4.736,4.973-4.736c2.761,0,5,2.239,5,5c0,0.446-0.077,0.87-0.187,1.282c0.642-0.777,1.6-1.282,2.687-1.282 c1.781,0,3.234,1.335,3.455,3.055c0.181-0.022,0.358-0.055,0.545-0.055c2.485,0,4.5,2.015,4.5,4.5s-2.015,4.5-4.5,3.75h-9.5H70v1 h-3V66z"/><path fill="#472b29" d="M73.5,49c3.033,0,5.5,2.467,5.5,5.5c0,0.016,0,0.031,0,0.047C79.602,54.192,80.29,54,81,54 c1.831,0,3.411,1.261,3.858,3.005C84.905,57.002,84.952,57,85,57c3.099,0,5.549,2.834,4.893,6.047 C89.413,65.398,87.204,67,84.804,67l-14.679,0c-0.276,0-0.5-0.224-0.5-0.5c0-0.276,0.224-0.5,0.5-0.5h14.718 c1.92,0,3.687-1.282,4.071-3.163C89.439,60.267,87.479,58,85,58c-0.117,0-0.23,0.017-0.343,0.032l-0.141,0.019 c-0.021,0.003-0.041,0.004-0.062,0.004c-0.246,0-0.462-0.185-0.495-0.437C83.768,56.125,82.496,55,81,55 c-0.885,0-1.723,0.401-2.301,1.1c-0.098,0.118-0.241,0.182-0.386,0.182c-0.078,0-0.156-0.018-0.228-0.056 c-0.209-0.107-0.314-0.346-0.254-0.573c0.16-0.6,0.202-1.069,0.147-1.549c-0.24-2.127-1.959-3.909-4.092-4.088 c-2.551-0.215-4.725,1.728-4.859,4.246c-0.011,0.208-0.15,0.387-0.349,0.45c-0.05,0.016-0.101,0.024-0.152,0.024 c-0.15,0-0.296-0.069-0.392-0.192C67.362,53.563,66.221,53,65,53c-2.206,0-4,1.794-4,4c0,0.117,0.017,0.23,0.032,0.343 l0.019,0.141c0.016,0.134-0.022,0.268-0.106,0.373c-0.084,0.105-0.207,0.172-0.34,0.185c-2.352,0.234-4.042,2.429-3.504,4.865 C57.509,64.76,59.275,66,61.173,66l5.952,0c0.276,0,0.5,0.224,0.5,0.5c0,0.276-0.224,0.5-0.5,0.5h-5.938 c-2.467,0-4.708-1.704-5.115-4.138c-0.462-2.763,1.344-5.22,3.931-5.74C60.001,57.082,60,57.041,60,57c0-2.757,2.243-5,5-5 c1.176,0,2.293,0.416,3.183,1.164C68.781,50.76,70.945,49,73.5,49L73.5,49z"/><path fill="#472b29" d="M75.25 56.25c1.403 0 2.609.999 2.913 2.341.367-.222.786-.341 1.212-.341 1.202 0 2.198.897 2.353 2.068.203-.045.396-.068.585-.068 1.529 0 2.811 1.2 2.918 2.732.009.138-.094.257-.232.267-.006 0-.012 0-.018 0-.13 0-.24-.101-.249-.232-.089-1.271-1.151-2.268-2.419-2.268-.229 0-.47.042-.738.127-.022.007-.045.01-.067.01-.055 0-.11-.02-.156-.054-.064-.047-.102-.129-.102-.209 0-1.034-.841-1.875-1.875-1.875-.447 0-.885.168-1.231.473-.047.041-.106.063-.165.063-.032 0-.063-.006-.093-.019-.088-.035-.148-.117-.155-.212-.102-1.292-1.191-2.305-2.479-2.305-.208 0-.425.034-.682.107-.023.007-.047.01-.07.01-.109 0-.207-.073-.239-.182-.038-.133.039-.271.172-.309C74.733 56.29 74.994 56.25 75.25 56.25L75.25 56.25zM61.367 57.75c1.326 0 2.508.897 2.874 2.182.038.133-.039.271-.172.309-.023.007-.046.01-.068.01-.109 0-.209-.072-.24-.182-.305-1.071-1.289-1.818-2.393-1.818-.117 0-.23.014-.342.029-.012.002-.023.003-.035.003-.121 0-.229-.092-.246-.217-.019-.137.077-.263.214-.281C61.092 57.766 61.228 57.75 61.367 57.75L61.367 57.75z"/><path fill="#fff" d="M85.405 44H75.5c-.276 0-.5-.224-.5-.5s.224-.5.5-.5h9.905c.276 0 .5.224.5.5S85.682 44 85.405 44zM88.5 44h-1c-.276 0-.5-.224-.5-.5s.224-.5.5-.5h1c.276 0 .5.224.5.5S88.777 44 88.5 44zM93.491 46H84.5c-.276 0-.5-.224-.5-.5s.224-.5.5-.5h8.991c.276 0 .5.224.5.5S93.767 46 93.491 46zM82.5 46h-1c-.276 0-.5-.224-.5-.5s.224-.5.5-.5h1c.276 0 .5.224.5.5S82.777 46 82.5 46zM79.5 46h-2c-.276 0-.5-.224-.5-.5s.224-.5.5-.5h2c.276 0 .5.224.5.5S79.777 46 79.5 46zM85.5 48h-2c-.276 0-.5-.224-.5-.5s.224-.5.5-.5h2c.276 0 .5.224.5.5S85.776 48 85.5 48zM88.5 39c-.177 0-.823 0-1 0-.276 0-.5.224-.5.5 0 .276.224.5.5.5.177 0 .823 0 1 0 .276 0 .5-.224.5-.5C89 39.224 88.776 39 88.5 39zM88.5 41c-.177 0-4.823 0-5 0-.276 0-.5.224-.5.5 0 .276.224.5.5.5.177 0 4.823 0 5 0 .276 0 .5-.224.5-.5C89 41.224 88.776 41 88.5 41zM93.5 43c-.177 0-2.823 0-3 0-.276 0-.5.224-.5.5 0 .276.224.5.5.5.177 0 2.823 0 3 0 .276 0 .5-.224.5-.5C94 43.224 93.776 43 93.5 43z"/><g><path fill="#fff" d="M49.5 22h-10c-.276 0-.5-.224-.5-.5s.224-.5.5-.5h10c.276 0 .5.224.5.5S49.776 22 49.5 22zM53.5 22h-2c-.276 0-.5-.224-.5-.5s.224-.5.5-.5h2c.276 0 .5.224.5.5S53.776 22 53.5 22zM58.5 24h-10c-.276 0-.5-.224-.5-.5s.224-.5.5-.5h10c.276 0 .5.224.5.5S58.777 24 58.5 24zM46.5 24h-1c-.276 0-.5-.224-.5-.5s.224-.5.5-.5h1c.276 0 .5.224.5.5S46.776 24 46.5 24zM43.375 24H41.5c-.276 0-.5-.224-.5-.5s.224-.5.5-.5h1.875c.276 0 .5.224.5.5S43.651 24 43.375 24zM52.5 20h-5c-.276 0-.5-.224-.5-.5s.224-.5.5-.5h5c.276 0 .5.224.5.5S52.777 20 52.5 20zM49.5 26h-2c-.276 0-.5-.224-.5-.5s.224-.5.5-.5h2c.276 0 .5.224.5.5S49.776 26 49.5 26z"/></g><g><path fill="#fdfcef" d="M23.5,54.5c0,0-1.567,0-3.5,0s-3.5-1.567-3.5-3.5c0-1.781,1.335-3.234,3.055-3.455 C19.527,47.366,19.5,47.187,19.5,47c0-1.933,1.567-3.5,3.5-3.5c1.032,0,1.95,0.455,2.59,1.165c0.384-1.808,1.987-3.165,3.91-3.165 c2.209,0,4,1.791,4,4c0,0.191-0.03,0.374-0.056,0.558C33.872,45.714,34.408,45.5,35,45.5c1.228,0,2.245,0.887,2.455,2.055 C37.634,47.527,37.813,47.5,38,47.5c1.933,0,3.5,1.567,3.5,3.5s-1.567,3.5-3.5,3.5s-7.5,0-7.5,0V55h-7V54.5z"/><path fill="#472b29" d="M21.75 50c.138 0 .25-.112.25-.25 0-1.223-.995-2.218-2.218-2.218-.034.009-.737-.001-1.244.136-.133.036-.212.173-.176.306.036.134.173.213.306.176.444-.12 1.1-.12 1.113-.118.948 0 1.719.771 1.719 1.718C21.5 49.888 21.612 50 21.75 50zM28.5 54A.5.5 0 1 0 28.5 55 .5.5 0 1 0 28.5 54z"/><path fill="#472b29" d="M20,55h3.5c0.276,0,0.5-0.224,0.5-0.5S23.776,54,23.5,54H20c-1.654,0-3-1.346-3-3 c0-1.496,1.125-2.768,2.618-2.959c0.134-0.018,0.255-0.088,0.336-0.196s0.115-0.244,0.094-0.377C20.025,47.314,20,47.16,20,47 c0-1.654,1.346-3,3-3c0.85,0,1.638,0.355,2.219,1c0.125,0.139,0.321,0.198,0.5,0.148c0.182-0.049,0.321-0.195,0.36-0.379 C26.42,43.165,27.859,42,29.5,42c1.93,0,3.5,1.57,3.5,3.5c0,0.143-0.021,0.28-0.041,0.418c-0.029,0.203,0.063,0.438,0.242,0.54 c0.179,0.102,0.396,0.118,0.556-0.01C34.122,46.155,34.551,46,35,46c0.966,0,1.792,0.691,1.963,1.644 c0.048,0.267,0.296,0.446,0.569,0.405C37.686,48.025,37.84,48,38,48c1.654,0,3,1.346,3,3s-1.346,3-3,3h-7.5 c-0.276,0-0.5,0.224-0.5,0.5s0.224,0.5,0.5,0.5H38c2.206,0,4-1.794,4-4s-1.794-4-4-4c-0.059,0-0.116,0.002-0.174,0.006 C37.412,45.82,36.289,45,35,45c-0.349,0-0.689,0.061-1.011,0.18C33.824,42.847,31.874,41,29.5,41 c-1.831,0-3.466,1.127-4.153,2.774C24.667,43.276,23.845,43,23,43c-2.206,0-4,1.794-4,4c0,0.048,0.001,0.095,0.004,0.142 C17.261,47.59,16,49.169,16,51C16,53.206,17.794,55,20,55z"/><path fill="#472b29" d="M25.5,54c0.159,0,0.841,0,1,0c0.276,0,0.5,0.224,0.5,0.5c0,0.276-0.224,0.5-0.5,0.5 c-0.159,0-0.841,0-1,0c-0.276,0-0.5-0.224-0.5-0.5C25,54.224,25.224,54,25.5,54z"/></g><g><path fill="#78a2d2" d="M53.287,70.81c-0.752,0.097-1.521,0.146-2.287,0.146c-4.995,0-9.673-2.089-12.998-5.691h2.248 c1.048,0,1.897-0.849,1.897-1.897s-0.849-1.897-1.897-1.897h-6.956c-1.048,0-1.897,0.849-1.897,1.897v6.956 c0,1.048,0.849,1.897,1.897,1.897s1.897-0.849,1.897-1.897v-2.513c4.038,4.391,9.73,6.939,15.809,6.939 c0.927,0,1.86-0.06,2.772-0.177c1.04-0.134,1.773-1.085,1.639-2.124C55.277,71.41,54.324,70.679,53.287,70.81z"/><path fill="#472b29" d="M51,75.45c-5.61,0-11.025-2.147-15.108-5.944v0.817c0,1.433-1.166,2.598-2.598,2.598 s-2.597-1.165-2.597-2.598v-6.956c0-1.432,1.165-2.597,2.597-2.597h6.956c1.432,0,2.597,1.165,2.597,2.597 c0,1.433-1.165,2.598-2.597,2.598h-0.536c3.636,3.226,8.619,4.775,13.483,4.15h0.002c1.414-0.176,2.724,0.828,2.906,2.244 c0.183,1.42-0.823,2.724-2.243,2.908C52.911,75.389,51.948,75.45,51,75.45z M34.491,66.016l1.215,1.321 c4.526,4.921,11.272,7.395,17.978,6.542c0.653-0.085,1.117-0.686,1.033-1.34c-0.084-0.653-0.676-1.108-1.343-1.035 c-0.785,0.101-1.583,0.152-2.374,0.152c-5.116,0-10.042-2.156-13.512-5.917l-1.084-1.175h3.847c0.66,0,1.197-0.537,1.197-1.197 s-0.537-1.196-1.197-1.196h-6.956c-0.66,0-1.197,0.536-1.197,1.196v6.956c0,0.66,0.537,1.197,1.197,1.197s1.197-0.537,1.197-1.197 V66.016z"/><path fill="#78a2d2" d="M48.142,35.773c0.936-0.152,1.897-0.229,2.858-0.229c5,0,9.676,2.088,12.999,5.691H61.75 c-1.048,0-1.897,0.849-1.897,1.897c0,1.048,0.849,1.897,1.897,1.897h6.956c1.048,0,1.897-0.849,1.897-1.897v-6.956 c0-1.048-0.849-1.897-1.897-1.897c-1.048,0-1.897,0.849-1.897,1.897v2.51C62.772,34.296,57.084,31.75,51,31.75 c-1.164,0-2.33,0.094-3.466,0.278c-1.035,0.168-1.736,1.143-1.568,2.177C46.135,35.239,47.109,35.94,48.142,35.773z"/><path fill="#472b29" d="M68.706,45.729H61.75c-1.432,0-2.597-1.165-2.597-2.597c0-1.433,1.165-2.598,2.597-2.598h0.538 c-3.09-2.744-7.119-4.291-11.288-4.291c-0.923,0-1.847,0.074-2.745,0.22l0,0.001c-1.414,0.236-2.749-0.735-2.979-2.147 c-0.111-0.685,0.051-1.372,0.456-1.935c0.406-0.563,1.006-0.935,1.691-1.046c1.173-0.19,2.377-0.287,3.578-0.287 c5.612,0,11.027,2.147,15.108,5.941v-0.814c0-1.433,1.166-2.598,2.598-2.598s2.597,1.165,2.597,2.598v6.956 C71.303,44.564,70.138,45.729,68.706,45.729z M61.75,41.936c-0.66,0-1.197,0.537-1.197,1.197s0.537,1.196,1.197,1.196h6.956 c0.66,0,1.197-0.536,1.197-1.196v-6.956c0-0.66-0.537-1.197-1.197-1.197s-1.197,0.537-1.197,1.197v4.306l-1.215-1.322 c-3.921-4.265-9.495-6.71-15.293-6.71c-1.126,0-2.254,0.091-3.354,0.27c-0.316,0.051-0.592,0.222-0.779,0.481 c-0.187,0.259-0.261,0.576-0.21,0.892c0.106,0.651,0.721,1.09,1.373,0.99l0,0c0.972-0.159,1.971-0.239,2.97-0.239 c5.12,0,10.046,2.157,13.514,5.917l1.083,1.175H61.75z"/><g><path fill="#78a2d2" d="M31.96,58.284c1.034-0.171,1.733-1.146,1.563-2.18c-0.017-0.106-0.034-0.213-0.049-0.32 c-0.119-0.835-0.18-1.687-0.18-2.533s0.061-1.699,0.179-2.532c0.578-4.041,2.544-7.728,5.512-10.47V42.5 c0,1.048,0.849,1.897,1.897,1.897c1.048,0,1.897-0.849,1.897-1.897v-6.956c0-1.048-0.849-1.897-1.897-1.897h-6.956 c-1.048,0-1.897,0.849-1.897,1.897s0.849,1.897,1.897,1.897h2.505c-3.616,3.332-6.011,7.819-6.715,12.741 c-0.144,1.012-0.217,2.044-0.217,3.068s0.073,2.056,0.218,3.069c0.019,0.135,0.039,0.269,0.062,0.402 c0.153,0.929,0.957,1.588,1.869,1.588C31.751,58.309,31.856,58.301,31.96,58.284z"/><path fill="#472b29" d="M31.648,59.009c-1.275,0-2.352-0.914-2.559-2.174c-0.023-0.138-0.045-0.279-0.064-0.421 c-0.149-1.037-0.225-2.104-0.225-3.164c0-1.059,0.076-2.124,0.224-3.167c0.638-4.46,2.649-8.641,5.714-11.941h-0.812 c-1.432,0-2.597-1.165-2.597-2.598c0-1.432,1.165-2.597,2.597-2.597h6.956c1.432,0,2.597,1.165,2.597,2.597V42.5 c0,1.433-1.165,2.598-2.597,2.598s-2.597-1.165-2.597-2.598v-0.539c-2.204,2.481-3.649,5.571-4.119,8.856 c-0.114,0.806-0.172,1.624-0.172,2.433s0.058,1.628,0.172,2.435l0.047,0.308c0.113,0.682-0.048,1.369-0.452,1.933 c-0.404,0.563-1.003,0.937-1.688,1.049C31.932,58.998,31.789,59.009,31.648,59.009z M33.926,34.348 c-0.66,0-1.197,0.536-1.197,1.196s0.537,1.197,1.197,1.197h4.298l-1.318,1.215c-3.516,3.239-5.822,7.616-6.497,12.325 c-0.139,0.977-0.209,1.976-0.209,2.969c0,0.995,0.071,1.994,0.21,2.969c0.018,0.132,0.038,0.26,0.059,0.385 c0.107,0.648,0.713,1.095,1.374,0.989h0.002c0.315-0.052,0.592-0.224,0.778-0.483c0.187-0.26,0.26-0.577,0.208-0.892l-0.052-0.336 c-0.124-0.872-0.187-1.757-0.187-2.632c0-0.874,0.063-1.759,0.187-2.631c0.594-4.155,2.629-8.021,5.73-10.886l1.175-1.085V42.5 c0,0.66,0.537,1.197,1.197,1.197s1.197-0.537,1.197-1.197v-6.956c0-0.66-0.537-1.196-1.197-1.196H33.926z"/></g><g><path fill="#78a2d2" d="M67.441,69.691h-2.593c4.837-4.054,7.651-9.991,7.651-16.441c0-1.164-0.094-2.33-0.278-3.466 c-0.168-1.035-1.146-1.736-2.177-1.568c-1.035,0.168-1.736,1.143-1.568,2.177c0.151,0.935,0.228,1.896,0.228,2.857 c0,5.322-2.326,10.219-6.324,13.56v-2.177c0-1.048-0.849-1.897-1.897-1.897s-1.897,0.849-1.897,1.897v6.956 c0,1.048,0.849,1.897,1.897,1.897h6.956c1.048,0,1.897-0.849,1.897-1.897S68.489,69.691,67.441,69.691z"/><path fill="#472b29" d="M67.441,74.186h-6.956c-1.432,0-2.597-1.165-2.597-2.598v-6.955c0-1.433,1.165-2.598,2.597-2.598 s2.597,1.165,2.597,2.598v0.587c3.146-3.161,4.923-7.443,4.923-11.97c0-0.922-0.074-1.846-0.219-2.746 c-0.111-0.684,0.051-1.37,0.456-1.933c0.405-0.563,1.006-0.935,1.69-1.046c0.684-0.106,1.37,0.051,1.933,0.456 c0.564,0.405,0.936,1.006,1.047,1.69c0.191,1.174,0.288,2.377,0.288,3.578c0,5.963-2.365,11.604-6.545,15.741h0.786 c1.432,0,2.597,1.165,2.597,2.597C70.039,73.021,68.874,74.186,67.441,74.186z M60.485,63.436c-0.66,0-1.197,0.537-1.197,1.197 v6.955c0,0.66,0.537,1.197,1.197,1.197h6.956c0.66,0,1.197-0.537,1.197-1.197s-0.537-1.196-1.197-1.196h-4.518l1.475-1.236 c4.704-3.943,7.401-9.74,7.401-15.905c0-1.126-0.09-2.254-0.269-3.354c-0.051-0.315-0.223-0.592-0.482-0.779 c-0.259-0.187-0.576-0.261-0.89-0.21c-0.317,0.052-0.593,0.223-0.78,0.482c-0.187,0.259-0.261,0.575-0.21,0.891 c0.158,0.975,0.238,1.974,0.238,2.97c0,5.467-2.396,10.605-6.575,14.097l-1.149,0.96v-3.674 C61.682,63.973,61.146,63.436,60.485,63.436z"/></g></g><g><path fill="#472b29" d="M44.479,67.082c-0.037,0-0.075-0.008-0.11-0.025c-0.407-0.2-0.804-0.417-1.179-0.645 c-0.118-0.071-0.156-0.226-0.084-0.344c0.072-0.117,0.227-0.153,0.343-0.084c0.363,0.22,0.747,0.43,1.141,0.623 c0.124,0.062,0.175,0.211,0.114,0.335C44.66,67.031,44.571,67.082,44.479,67.082z"/></g><g><path fill="#472b29" d="M51.107,68.613c-1.521,0-3.024-0.223-4.467-0.661c-0.132-0.04-0.207-0.18-0.167-0.313 c0.041-0.131,0.179-0.2,0.312-0.166c1.395,0.425,2.849,0.64,4.321,0.64c0.138,0,0.25,0.112,0.25,0.25S51.246,68.613,51.107,68.613z"/></g><g><path fill="#472b29" d="M58.294,40.278c-0.041,0-0.082-0.01-0.119-0.03c-2.595-1.409-5.615-2.012-8.584-1.713 c-0.137,0.015-0.26-0.087-0.273-0.224c-0.014-0.138,0.086-0.261,0.224-0.274c3.065-0.311,6.189,0.314,8.872,1.771 c0.122,0.066,0.167,0.218,0.101,0.339C58.468,40.231,58.382,40.278,58.294,40.278z"/></g></svg>