<svg xmlns="http://www.w3.org/2000/svg"  viewBox="0 0 100 100" width="200px" height="200px"><path fill="#c7ede6" d="M87.215,56.71C88.35,54.555,89,52.105,89,49.5c0-6.621-4.159-12.257-10.001-14.478 C78.999,35.015,79,35.008,79,35c0-11.598-9.402-21-21-21c-9.784,0-17.981,6.701-20.313,15.757C36.211,29.272,34.638,29,33,29 c-7.692,0-14.023,5.793-14.89,13.252C12.906,43.353,9,47.969,9,53.5C9,59.851,14.149,65,20.5,65c0.177,0,0.352-0.012,0.526-0.022 C21.022,65.153,21,65.324,21,65.5C21,76.822,30.178,86,41.5,86c6.437,0,12.175-2.972,15.934-7.614C59.612,80.611,62.64,82,66,82 c4.65,0,8.674-2.65,10.666-6.518C77.718,75.817,78.837,76,80,76c6.075,0,11-4.925,11-11C91,61.689,89.53,58.727,87.215,56.71z"/><path fill="#fdfcef" d="M40.875,41.5c0,0,3.64,0,6.125,0s4.5-2.015,4.5-4.5c0-2.333-1.782-4.229-4.055-4.455 C47.467,32.364,47.5,32.187,47.5,32c0-2.485-2.015-4.5-4.5-4.5c-1.438,0-2.703,0.686-3.527,1.736 C39.333,26.6,37.171,24.5,34.5,24.5c-2.761,0-5,2.239-5,5c0,0.446,0.077,0.87,0.187,1.282C29.045,30.005,28.086,29.5,27,29.5 c-1.781,0-3.234,1.335-3.455,3.055C23.364,32.533,23.187,32.5,23,32.5c-2.485,0-4.5,2.015-4.5,4.5s2.015,4.5,4.5,4.5s9.5,0,9.5,0 h5.375V42h3V41.5z"/><path fill="#472b29" d="M34.5,24c-3.033,0-5.5,2.467-5.5,5.5c0,0.016,0,0.031,0,0.047C28.398,29.192,27.71,29,27,29 c-1.831,0-3.411,1.261-3.858,3.005C23.095,32.002,23.048,32,23,32c-2.757,0-5,2.243-5,5s2.243,5,5,5h14.875 c0.276,0,0.5-0.224,0.5-0.5s-0.224-0.5-0.5-0.5H23c-2.206,0-4-1.794-4-4s1.794-4,4-4c0.117,0,0.23,0.017,0.343,0.032l0.141,0.019 c0.021,0.003,0.041,0.004,0.062,0.004c0.246,0,0.462-0.185,0.495-0.437C24.232,31.125,25.504,30,27,30 c0.885,0,1.723,0.401,2.301,1.1c0.098,0.118,0.241,0.182,0.386,0.182c0.078,0,0.156-0.018,0.228-0.056 c0.209-0.107,0.314-0.346,0.254-0.573C30.054,30.218,30,29.852,30,29.5c0-2.481,2.019-4.5,4.5-4.5 c2.381,0,4.347,1.872,4.474,4.263c0.011,0.208,0.15,0.387,0.349,0.45c0.05,0.016,0.101,0.024,0.152,0.024 c0.15,0,0.296-0.069,0.392-0.192C40.638,28.563,41.779,28,43,28c2.206,0,4,1.794,4,4c0,0.117-0.017,0.23-0.032,0.343l-0.019,0.141 c-0.016,0.134,0.022,0.268,0.106,0.373c0.084,0.105,0.207,0.172,0.34,0.185C49.451,33.247,51,34.949,51,37c0,2.206-1.794,4-4,4 h-6.125c-0.276,0-0.5,0.224-0.5,0.5s0.224,0.5,0.5,0.5H47c2.757,0,5-2.243,5-5c0-2.397-1.689-4.413-4.003-4.877 C47.999,32.082,48,32.041,48,32c0-2.757-2.243-5-5-5c-1.176,0-2.293,0.416-3.183,1.164C39.219,25.76,37.055,24,34.5,24L34.5,24z"/><path fill="#472b29" d="M33 31c-1.403 0-2.609.999-2.913 2.341C29.72 33.119 29.301 33 28.875 33c-1.202 0-2.198.897-2.353 2.068C26.319 35.022 26.126 35 25.937 35c-1.529 0-2.811 1.2-2.918 2.732C23.01 37.87 23.114 37.99 23.251 38c.006 0 .012 0 .018 0 .13 0 .24-.101.249-.232.089-1.271 1.151-2.268 2.419-2.268.229 0 .47.042.738.127.022.007.045.01.067.01.055 0 .11-.02.156-.054C26.962 35.537 27 35.455 27 35.375c0-1.034.841-1.875 1.875-1.875.447 0 .885.168 1.231.473.047.041.106.063.165.063.032 0 .063-.006.093-.019.088-.035.148-.117.155-.212C30.623 32.512 31.712 31.5 33 31.5c.208 0 .425.034.682.107.023.007.047.01.07.01.109 0 .207-.073.239-.182.038-.133-.039-.271-.172-.309C33.517 31.04 33.256 31 33 31L33 31zM46.883 32.5c-1.326 0-2.508.897-2.874 2.182-.038.133.039.271.172.309C44.205 34.997 44.228 35 44.25 35c.109 0 .209-.072.24-.182C44.795 33.748 45.779 33 46.883 33c.117 0 .23.014.342.029.012.002.023.003.035.003.121 0 .229-.092.246-.217.019-.137-.077-.263-.214-.281C47.158 32.516 47.022 32.5 46.883 32.5L46.883 32.5z"/><path fill="#fff" d="M15.405 50H5.5C5.224 50 5 49.776 5 49.5S5.224 49 5.5 49h9.905c.276 0 .5.224.5.5S15.682 50 15.405 50zM18.5 50h-1c-.276 0-.5-.224-.5-.5s.224-.5.5-.5h1c.276 0 .5.224.5.5S18.777 50 18.5 50zM23.491 52H14.5c-.276 0-.5-.224-.5-.5s.224-.5.5-.5h8.991c.276 0 .5.224.5.5S23.767 52 23.491 52zM12.5 52h-1c-.276 0-.5-.224-.5-.5s.224-.5.5-.5h1c.276 0 .5.224.5.5S12.777 52 12.5 52zM9.5 52h-2C7.224 52 7 51.776 7 51.5S7.224 51 7.5 51h2c.276 0 .5.224.5.5S9.777 52 9.5 52zM15.5 54h-2c-.276 0-.5-.224-.5-.5s.224-.5.5-.5h2c.276 0 .5.224.5.5S15.776 54 15.5 54zM18.5 45c-.177 0-.823 0-1 0-.276 0-.5.224-.5.5 0 .276.224.5.5.5.177 0 .823 0 1 0 .276 0 .5-.224.5-.5C19 45.224 18.776 45 18.5 45zM18.5 47c-.177 0-4.823 0-5 0-.276 0-.5.224-.5.5 0 .276.224.5.5.5.177 0 4.823 0 5 0 .276 0 .5-.224.5-.5C19 47.224 18.776 47 18.5 47zM23.5 49c-.177 0-2.823 0-3 0-.276 0-.5.224-.5.5 0 .276.224.5.5.5.177 0 2.823 0 3 0 .276 0 .5-.224.5-.5C24 49.224 23.776 49 23.5 49z"/><g><path fill="#fff" d="M67.5 20h-10c-.276 0-.5-.224-.5-.5s.224-.5.5-.5h10c.276 0 .5.224.5.5S67.776 20 67.5 20zM71.5 20h-2c-.276 0-.5-.224-.5-.5s.224-.5.5-.5h2c.276 0 .5.224.5.5S71.776 20 71.5 20zM76.5 22h-10c-.276 0-.5-.224-.5-.5s.224-.5.5-.5h10c.276 0 .5.224.5.5S76.777 22 76.5 22zM64.5 22h-1c-.276 0-.5-.224-.5-.5s.224-.5.5-.5h1c.276 0 .5.224.5.5S64.776 22 64.5 22zM61.375 22H59.5c-.276 0-.5-.224-.5-.5s.224-.5.5-.5h1.875c.276 0 .5.224.5.5S61.651 22 61.375 22zM70.5 18h-5c-.276 0-.5-.224-.5-.5s.224-.5.5-.5h5c.276 0 .5.224.5.5S70.777 18 70.5 18zM67.5 24h-2c-.276 0-.5-.224-.5-.5s.224-.5.5-.5h2c.276 0 .5.224.5.5S67.776 24 67.5 24z"/></g><g><path fill="#a1a1ca" d="M37.375,73.3c-2.578,0-4.675-2.097-4.675-4.675v-6.836c0-0.558,0.462-0.903,0.891-0.903 c0.134,0,0.265,0.032,0.389,0.096C34.92,61.458,35.937,61.7,37,61.7c2.027,0,3.924-0.904,5.204-2.479 c1.279-1.576,1.769-3.641,1.345-5.664c-0.527-2.512-2.567-4.561-5.075-5.099C37.985,48.354,37.489,48.3,37,48.3 c-1.037,0-2.032,0.231-2.957,0.688c-0.142,0.069-0.289,0.105-0.439,0.105c-0.444,0-0.903-0.332-0.903-0.886v-6.832 c0-2.578,2.097-4.675,4.675-4.675h7.251l-0.391-0.963C43.88,34.86,43.7,33.939,43.7,33c0-4.025,3.274-7.3,7.301-7.3 c0.452,0,0.912,0.041,1.367,0.123c2.764,0.5,5.063,2.675,5.72,5.412c0.365,1.521,0.253,3.077-0.323,4.502L57.374,36.7h7.251 c2.578,0,4.675,2.097,4.675,4.675v27.25c0,2.578-2.097,4.675-4.675,4.675H37.375z"/><path fill="#472b29" d="M51,26.4L51,26.4c0.411,0,0.83,0.038,1.244,0.113c2.495,0.451,4.571,2.414,5.164,4.885 c0.331,1.378,0.23,2.788-0.292,4.076l-0.78,1.926h2.078h6.212c2.192,0,3.975,1.783,3.975,3.975v27.25 c0,2.192-1.783,3.975-3.975,3.975h-27.25c-2.192,0-3.975-1.783-3.975-3.975v-6.836c0-0.037,0.006-0.092,0.059-0.144 c0.038-0.037,0.088-0.06,0.132-0.06c0.015,0,0.038,0.002,0.073,0.02C34.705,62.133,35.827,62.4,37,62.4 c2.24,0,4.334-0.998,5.747-2.738c1.413-1.74,1.954-4.018,1.486-6.249c-0.583-2.778-2.839-5.044-5.612-5.639 C38.084,47.658,37.539,47.6,37,47.6c-1.146,0-2.245,0.255-3.267,0.759c-0.045,0.022-0.087,0.033-0.13,0.033 c-0.008,0-0.204-0.002-0.204-0.185v-6.833c0-2.192,1.783-3.975,3.975-3.975h6.212h2.078l-0.78-1.926 C44.563,34.681,44.4,33.848,44.4,33c0-1.763,0.686-3.42,1.933-4.667S49.237,26.4,51,26.4 M51,25c-4.418,0-8,3.582-8,8 c0,1.062,0.211,2.073,0.587,3h-6.212C34.419,36,32,38.419,32,41.375v6.833c0,0.935,0.759,1.585,1.604,1.585 c0.248,0,0.503-0.056,0.749-0.177C35.151,49.222,36.05,49,37,49c0.433,0,0.877,0.046,1.327,0.143 c2.25,0.482,4.063,2.306,4.536,4.558C43.678,57.581,40.738,61,37,61c-0.973,0-1.892-0.232-2.704-0.643 c-0.231-0.117-0.471-0.171-0.705-0.171c-0.834,0-1.591,0.681-1.591,1.603v6.836C32,71.581,34.419,74,37.375,74h27.25 C67.581,74,70,71.581,70,68.625v-27.25C70,38.419,67.581,36,64.625,36h-6.212c0.598-1.475,0.779-3.163,0.356-4.928 c-0.724-3.013-3.227-5.386-6.276-5.937C51.987,25.044,51.488,25,51,25L51,25z"/></g><g><path fill="#472b29" d="M53.023,36.356c-0.156,0-0.311-0.073-0.408-0.211c-0.159-0.225-0.106-0.537,0.119-0.697 C53.526,34.887,54,33.971,54,33c0-0.276,0.224-0.5,0.5-0.5S55,32.724,55,33c0,1.295-0.631,2.515-1.688,3.265 C53.225,36.326,53.124,36.356,53.023,36.356z"/></g><g><path fill="#472b29" d="M48.92,36.314c-0.104,0-0.208-0.032-0.298-0.099C47.606,35.464,47,34.262,47,33c0-2.206,1.794-4,4-4 c0.276,0,0.5,0.224,0.5,0.5S51.276,30,51,30c-1.654,0-3,1.346-3,3c0,0.96,0.443,1.84,1.218,2.413 c0.222,0.164,0.269,0.477,0.104,0.699C49.224,36.244,49.072,36.314,48.92,36.314z"/></g><g><path fill="#472b29" d="M55.75,70.5H38.875c-0.276,0-0.5-0.224-0.5-0.5s0.224-0.5,0.5-0.5H55.75c0.276,0,0.5,0.224,0.5,0.5 S56.026,70.5,55.75,70.5z"/></g><g><path fill="#472b29" d="M63.167,70.5H58.5c-0.276,0-0.5-0.224-0.5-0.5s0.224-0.5,0.5-0.5h4.667c0.276,0,0.5,0.224,0.5,0.5 S63.443,70.5,63.167,70.5z"/></g><g><path fill="#472b29" d="M66,68.5c-0.276,0-0.5-0.224-0.5-0.5V54c0-0.276,0.224-0.5,0.5-0.5s0.5,0.224,0.5,0.5v14 C66.5,68.276,66.276,68.5,66,68.5z"/></g><g><path fill="#472b29" d="M66,51.75c-0.276,0-0.5-0.224-0.5-0.5v-3.875c0-0.276,0.224-0.5,0.5-0.5s0.5,0.224,0.5,0.5v3.875 C66.5,51.526,66.276,51.75,66,51.75z"/></g><g><path fill="#472b29" d="M66,45.625c-0.276,0-0.5-0.224-0.5-0.5v-3.292c0-0.735-0.598-1.333-1.333-1.333H57.5 c-0.276,0-0.5-0.224-0.5-0.5s0.224-0.5,0.5-0.5h6.667c1.286,0,2.333,1.047,2.333,2.333v3.292C66.5,45.401,66.276,45.625,66,45.625z"/></g><g><path fill="#fdfcef" d="M77.5,65.5c0,0,1.567,0,3.5,0s3.5-1.567,3.5-3.5c0-1.781-1.335-3.234-3.055-3.455 C81.473,58.366,81.5,58.187,81.5,58c0-1.933-1.567-3.5-3.5-3.5c-1.032,0-1.95,0.455-2.59,1.165 c-0.384-1.808-1.987-3.165-3.91-3.165c-2.209,0-4,1.791-4,4c0,0.191,0.03,0.374,0.056,0.558C67.128,56.714,66.592,56.5,66,56.5 c-1.228,0-2.245,0.887-2.455,2.055C63.366,58.527,63.187,58.5,63,58.5c-1.933,0-3.5,1.567-3.5,3.5s1.567,3.5,3.5,3.5s7.5,0,7.5,0 V66h7V65.5z"/><path fill="#472b29" d="M79.25 61C79.112 61 79 60.888 79 60.75c0-1.223.995-2.218 2.218-2.218.034.009.737-.001 1.244.136.133.036.212.173.176.306-.036.134-.173.213-.306.176-.444-.12-1.1-.12-1.113-.118-.948 0-1.719.771-1.719 1.718C79.5 60.888 79.388 61 79.25 61zM72.5 65A.5.5 0 1 0 72.5 66 .5.5 0 1 0 72.5 65z"/><path fill="#472b29" d="M81,66h-3.5c-0.276,0-0.5-0.224-0.5-0.5s0.224-0.5,0.5-0.5H81c1.654,0,3-1.346,3-3 c0-1.496-1.125-2.768-2.618-2.959c-0.134-0.018-0.255-0.088-0.336-0.196s-0.115-0.244-0.094-0.377C80.975,58.314,81,58.16,81,58 c0-1.654-1.346-3-3-3c-0.85,0-1.638,0.355-2.219,1c-0.125,0.139-0.321,0.198-0.5,0.148c-0.182-0.049-0.321-0.195-0.36-0.379 C74.58,54.165,73.141,53,71.5,53c-1.93,0-3.5,1.57-3.5,3.5c0,0.143,0.021,0.28,0.041,0.418c0.029,0.203-0.063,0.438-0.242,0.54 c-0.179,0.102-0.396,0.118-0.556-0.01C66.878,57.155,66.449,57,66,57c-0.966,0-1.792,0.691-1.963,1.644 c-0.048,0.267-0.296,0.446-0.569,0.405C63.314,59.025,63.16,59,63,59c-1.654,0-3,1.346-3,3s1.346,3,3,3h7.5 c0.276,0,0.5,0.224,0.5,0.5S70.776,66,70.5,66H63c-2.206,0-4-1.794-4-4s1.794-4,4-4c0.059,0,0.116,0.002,0.174,0.006 C63.588,56.82,64.711,56,66,56c0.349,0,0.689,0.061,1.011,0.18C67.176,53.847,69.126,52,71.5,52c1.831,0,3.466,1.127,4.153,2.774 C76.333,54.276,77.155,54,78,54c2.206,0,4,1.794,4,4c0,0.048-0.001,0.095-0.004,0.142C83.739,58.59,85,60.169,85,62 C85,64.206,83.206,66,81,66z"/><path fill="#472b29" d="M75.5,65c-0.159,0-0.841,0-1,0c-0.276,0-0.5,0.224-0.5,0.5c0,0.276,0.224,0.5,0.5,0.5 c0.159,0,0.841,0,1,0c0.276,0,0.5-0.224,0.5-0.5C76,65.224,75.776,65,75.5,65z"/></g></svg>