<svg xmlns="http://www.w3.org/2000/svg"  viewBox="0 0 100 100" width="200px" height="200px"><path fill="#c8ede6" d="M87.234,55.551c0.3-0.616,0.566-1.264,0.796-1.943c2.633-7.77-1.349-17.078-9.733-19.325 C77.391,22.9,69.391,15.09,60.356,13.758c-10.341-1.525-19.814,5.044-22.966,15.485c-3.799-1.346-7.501-1.182-10.99,0.857 c-1.583,0.732-3.031,1.812-4.33,3.233c-1.907,2.086-3.147,4.719-3.652,7.495c-0.748,0.118-1.483,0.236-2.176,0.484 c-4.04,1.449-6.589,4.431-7.288,8.923c-0.435,2.797,0.443,5.587,0.933,6.714c1.935,4.455,6.422,6.98,10.981,6.312 c0.227-0.033,0.557,0.069,0.752,0.233c0.241,7.12,3.698,13.417,8.884,17.014c8.321,5.772,19.027,3.994,25.781-3.921 c2.894,2.96,6.338,4.398,10.384,3.876c4.023-0.519,7.147-2.739,9.426-6.349c1.053,0.283,2.051,0.691,3.083,0.804 c4.042,0.442,7.297-1.184,9.732-4.8c0.083-0.124,0.203-0.219,0.306-0.328c0.348-0.798,0.696-1.596,1.044-2.394 c0.155-1.211,0.429-2.423,0.443-3.632C90.742,60.508,89.411,57.54,87.234,55.551z"/><path fill="#fdfcef" d="M72.674,48.423c0,0-11.691,0-11.762,0c-2.7,0-4.888-2.189-4.888-4.889 c0-2.355,1.666-4.321,3.884-4.784c-0.026-0.206-0.043-0.415-0.043-0.628c0-2.796,2.267-5.063,5.063-5.063 c1.651,0,3.113,0.794,4.037,2.017c0.236-3.113,3.017-5.514,6.27-5.116c2.379,0.291,4.346,2.13,4.784,4.486 c0.14,0.756,0.126,1.489-0.014,2.177c0.638-0.687,1.546-1.119,2.557-1.119c1.85,0,3.361,1.441,3.48,3.261 c0.84-0.186,1.754-0.174,2.717,0.188c1.84,0.691,3.15,2.423,3.227,4.387c0.109,2.789-2.12,5.085-4.885,5.085 c-0.21,0-0.948,0-1.118,0H75.832"/><path fill="#472b29" d="M60.912,48.923h11.762c0.276,0,0.5-0.224,0.5-0.5s-0.224-0.5-0.5-0.5H60.912 c-2.42,0-4.389-1.969-4.389-4.389c0-2.066,1.466-3.873,3.486-4.295c0.255-0.053,0.426-0.293,0.394-0.552 c-0.023-0.186-0.039-0.374-0.039-0.565c0-2.517,2.047-4.563,4.562-4.563c1.438,0,2.765,0.663,3.638,1.818 c0.125,0.166,0.338,0.237,0.54,0.178c0.199-0.059,0.342-0.234,0.357-0.441c0.104-1.377,0.779-2.671,1.85-3.549 c1.083-0.888,2.456-1.282,3.86-1.109c2.166,0.266,3.956,1.943,4.353,4.081c0.124,0.667,0.12,1.335-0.013,1.986 c-0.044,0.22,0.062,0.442,0.262,0.544c0.2,0.104,0.443,0.06,0.595-0.104c0.575-0.618,1.353-0.959,2.19-0.959 c1.569,0,2.878,1.228,2.981,2.794c0.01,0.146,0.082,0.279,0.199,0.366c0.117,0.089,0.268,0.12,0.408,0.089 c0.841-0.185,1.637-0.132,2.433,0.167c1.669,0.627,2.835,2.209,2.903,3.938c0.047,1.207-0.387,2.35-1.221,3.218 c-0.835,0.869-1.959,1.348-3.164,1.348H75.828c-0.276,0-0.5,0.224-0.5,0.5s0.224,0.5,0.5,0.5h11.271 c1.479,0,2.858-0.588,3.884-1.654c1.025-1.066,1.558-2.469,1.5-3.95c-0.083-2.126-1.51-4.069-3.55-4.835 c-0.8-0.301-1.626-0.398-2.468-0.299c-0.377-1.822-1.998-3.182-3.905-3.182c-0.684,0-1.354,0.18-1.944,0.51 c0-0.386-0.035-0.772-0.106-1.159c-0.477-2.562-2.621-4.573-5.215-4.891c-1.679-0.205-3.32,0.266-4.616,1.328 c-1.003,0.823-1.716,1.951-2.038,3.193c-1.012-0.916-2.319-1.426-3.714-1.426c-3.067,0-5.562,2.496-5.562,5.563 c0,0.083,0.002,0.166,0.007,0.248c-2.254,0.673-3.848,2.776-3.848,5.164C55.523,46.507,57.94,48.923,60.912,48.923z"/><path fill="#fdfcef" d="M75.507,37.655c1.808-0.119,3.365,1.13,3.476,2.789c0.014,0.206,0.005,0.409-0.025,0.606 c0.349-0.394,0.865-0.661,1.458-0.7c1.085-0.071,2.022,0.645,2.158,1.62c0.197-0.054,0.403-0.09,0.616-0.104 c1.582-0.104,2.944,0.989,3.042,2.441"/><path fill="#472b29" d="M86.231,44.556c0.006,0,0.012,0,0.017-0.001c0.138-0.009,0.242-0.128,0.233-0.266 c-0.107-1.587-1.588-2.789-3.308-2.674c-0.137,0.009-0.273,0.026-0.409,0.053c-0.274-0.968-1.256-1.645-2.366-1.567 c-0.425,0.027-0.823,0.159-1.164,0.382c0-0.019-0.002-0.037-0.003-0.056c-0.12-1.795-1.787-3.16-3.742-3.021 c-0.138,0.009-0.242,0.128-0.233,0.266c0.009,0.138,0.124,0.255,0.266,0.232c1.651-0.105,3.108,1.037,3.21,2.557 c0.012,0.184,0.004,0.37-0.023,0.553c-0.017,0.109,0.041,0.217,0.141,0.264s0.219,0.022,0.293-0.061 c0.323-0.365,0.78-0.584,1.287-0.617c0.951-0.034,1.775,0.556,1.894,1.404c0.01,0.071,0.05,0.135,0.11,0.175 c0.06,0.039,0.133,0.051,0.204,0.032c0.187-0.051,0.377-0.083,0.567-0.097c1.44-0.092,2.687,0.896,2.775,2.209 C85.991,44.455,86.101,44.556,86.231,44.556z"/><path fill="#fdfcef" d="M58.932,39.323c1.699-0.801,3.664-0.234,4.389,1.267c0.09,0.186,0.157,0.379,0.201,0.574"/><path fill="#472b29" d="M63.522,41.414c0.018,0,0.037-0.002,0.056-0.006c0.134-0.031,0.219-0.165,0.188-0.3 c-0.049-0.217-0.123-0.428-0.219-0.627c-0.783-1.621-2.902-2.239-4.721-1.385c-0.125,0.06-0.179,0.208-0.12,0.333 c0.059,0.126,0.209,0.176,0.333,0.12c1.574-0.744,3.394-0.227,4.058,1.149c0.08,0.165,0.141,0.34,0.182,0.521 C63.305,41.336,63.408,41.414,63.522,41.414z"/><path fill="#fff" d="M16.899,45H6.869c-0.276,0-0.5-0.224-0.5-0.5s0.224-0.5,0.5-0.5h10.03c0.276,0,0.5,0.224,0.5,0.5 S17.176,45,16.899,45z M20.28,44.5c0-0.276-0.224-0.5-0.5-0.5h-1.446c-0.276,0-0.5,0.224-0.5,0.5s0.224,0.5,0.5,0.5h1.446 C20.057,45,20.28,44.776,20.28,44.5z M24.335,44.5c0-0.276-0.224-0.5-0.5-0.5h-2.546c-0.276,0-0.5,0.224-0.5,0.5s0.224,0.5,0.5,0.5 h2.546C24.112,45,24.335,44.776,24.335,44.5z M24.335,46.5c0-0.276-0.224-0.5-0.5-0.5h-9.616c-0.276,0-0.5,0.224-0.5,0.5 s0.224,0.5,0.5,0.5h9.616C24.112,47,24.335,46.776,24.335,46.5z M12.987,46.5c0-0.276-0.224-0.5-0.5-0.5h-0.58 c-0.276,0-0.5,0.224-0.5,0.5s0.224,0.5,0.5,0.5h0.58C12.763,47,12.987,46.776,12.987,46.5z M10.611,46.5c0-0.276-0.224-0.5-0.5-0.5 H8.654c-0.276,0-0.5,0.224-0.5,0.5s0.224,0.5,0.5,0.5h1.457C10.387,47,10.611,46.776,10.611,46.5z M19.746,42.5 c0-0.276-0.224-0.5-0.5-0.5h-5.027c-0.276,0-0.5,0.224-0.5,0.5s0.224,0.5,0.5,0.5h5.027C19.523,43,19.746,42.776,19.746,42.5z M19.746,40.5c0-0.276-0.224-0.5-0.5-0.5h-1.257c-0.276,0-0.5,0.224-0.5,0.5s0.224,0.5,0.5,0.5h1.257 C19.523,41,19.746,40.776,19.746,40.5z M16.477,48.5c0-0.276-0.224-0.5-0.5-0.5h-1.758c-0.276,0-0.5,0.224-0.5,0.5 s0.224,0.5,0.5,0.5h1.758C16.254,49,16.477,48.776,16.477,48.5z"/><path fill="#fff" d="M86.744,71h-10.03c-0.276,0-0.5-0.224-0.5-0.5s0.224-0.5,0.5-0.5h10.031c0.276,0,0.5,0.224,0.5,0.5 S87.021,71,86.744,71z M90.125,70.5c0-0.276-0.224-0.5-0.5-0.5h-1.446c-0.276,0-0.5,0.224-0.5,0.5s0.224,0.5,0.5,0.5h1.446 C89.902,71,90.125,70.776,90.125,70.5z M94.18,70.5c0-0.276-0.224-0.5-0.5-0.5h-2.546c-0.276,0-0.5,0.224-0.5,0.5 s0.224,0.5,0.5,0.5h2.546C93.956,71,94.18,70.776,94.18,70.5z M92.154,66.5c0-0.276-0.224-0.5-0.5-0.5h-9.616 c-0.276,0-0.5,0.224-0.5,0.5s0.224,0.5,0.5,0.5h9.616C91.93,67,92.154,66.776,92.154,66.5z M80.806,66.5c0-0.276-0.224-0.5-0.5-0.5 h-0.58c-0.276,0-0.5,0.224-0.5,0.5s0.224,0.5,0.5,0.5h0.58C80.583,67,80.806,66.776,80.806,66.5z M78.429,66.5 c0-0.276-0.224-0.5-0.5-0.5h-1.456c-0.276,0-0.5,0.224-0.5,0.5s0.224,0.5,0.5,0.5h1.456C78.206,67,78.429,66.776,78.429,66.5z M89.591,68.5c0-0.276-0.224-0.5-0.5-0.5h-5.027c-0.276,0-0.5,0.224-0.5,0.5s0.224,0.5,0.5,0.5h5.027 C89.367,69,89.591,68.776,89.591,68.5z M89.591,66.5c0-0.276-0.224-0.5-0.5-0.5h-1.257c-0.276,0-0.5,0.224-0.5,0.5 s0.224,0.5,0.5,0.5h1.257C89.367,67,89.591,66.776,89.591,66.5z M83.108,68.5c0-0.276-0.224-0.5-0.5-0.5H80.85 c-0.276,0-0.5,0.224-0.5,0.5s0.224,0.5,0.5,0.5h1.758C82.885,69,83.108,68.776,83.108,68.5z"/><path fill="#78a0cf" d="M51,27.75c-12.841,0-23.25,10.409-23.25,23.25S38.159,74.25,51,74.25S74.25,63.841,74.25,51 S63.841,27.75,51,27.75z M51,67c-8.837,0-16-7.164-16-16s7.163-16,16-16s16,7.164,16,16S59.837,67,51,67z"/><path fill="#472b29" d="M68.792,43.107c-0.188,0-0.367-0.105-0.453-0.287c-2.494-5.286-7.372-9.223-13.049-10.529 c-0.269-0.062-0.437-0.33-0.375-0.6c0.062-0.269,0.331-0.439,0.6-0.375c5.974,1.375,11.106,5.516,13.729,11.078 c0.118,0.249,0.011,0.547-0.239,0.665C68.936,43.092,68.863,43.107,68.792,43.107z"/><path fill="#472b29" d="M69.813,56.758c-0.041,0-0.082-0.005-0.123-0.016c-0.268-0.067-0.43-0.339-0.362-0.606 c0.862-3.414,0.812-7.003-0.145-10.377c-0.075-0.266,0.079-0.542,0.345-0.618c0.262-0.074,0.542,0.079,0.617,0.345 c1.004,3.544,1.057,7.311,0.152,10.895C70.241,56.606,70.037,56.758,69.813,56.758z"/><path fill="#fdfcef" d="M35.425,50.74c-0.005-0.157-0.023-0.311-0.023-0.469c0-8.295,6.627-15.02,14.803-15.02 c0.156,0,0.308,0.019,0.463,0.024v-7.757c-0.154-0.003-0.307-0.012-0.463-0.012c-11.303,0-20.649,8.483-22.204,19.516v3.719H35.425 z"/><g><path fill="#472b29" d="M51,74.95c-13.206,0-23.95-10.744-23.95-23.95S37.794,27.05,51,27.05S74.95,37.794,74.95,51 S64.206,74.95,51,74.95z M51,28.45c-12.434,0-22.55,10.115-22.55,22.55S38.566,73.55,51,73.55S73.55,63.435,73.55,51 S63.434,28.45,51,28.45z M51,67.7c-9.208,0-16.7-7.492-16.7-16.7S41.792,34.3,51,34.3S67.7,41.792,67.7,51S60.208,67.7,51,67.7z M51,35.7c-8.437,0-15.3,6.863-15.3,15.3S42.563,66.3,51,66.3S66.3,59.437,66.3,51S59.437,35.7,51,35.7z"/></g><g><path fill="#472b29" d="M50.966,71.197c-11.137,0-20.198-9.061-20.198-20.197c0-9.554,6.783-17.875,16.128-19.787 c0.271-0.057,0.534,0.12,0.59,0.39c0.056,0.271-0.119,0.535-0.39,0.591C38.215,34.01,31.769,41.919,31.769,51 c0,10.585,8.612,19.197,19.198,19.197c7.608,0,14.507-4.5,17.576-11.464c0.111-0.253,0.406-0.367,0.659-0.257 c0.252,0.111,0.367,0.407,0.256,0.659C66.229,66.463,58.971,71.197,50.966,71.197z"/></g><g><path fill="#fdfcef" d="M32.908,74.287h7.934c0.133,0,0.71,0,0.874,0c2.161,0,3.903-1.756,3.818-3.889 c-0.06-1.503-1.084-2.828-2.522-3.356c-0.752-0.276-1.466-0.285-2.123-0.143c-0.093-1.392-1.274-2.494-2.72-2.494 c-0.79,0-1.5,0.331-1.998,0.856c0.109-0.526,0.121-1.087,0.011-1.665c-0.342-1.802-1.88-3.208-3.739-3.431 c-2.542-0.305-4.715,1.532-4.9,3.913c-0.722-0.936-1.865-1.543-3.155-1.543c-2.185,0-3.957,1.734-3.957,3.873 c0,0.163,0.014,0.322,0.034,0.48c-1.733,0.355-3.035,1.858-3.035,3.66c0,2.065,1.711,3.739,3.821,3.739c0.023,0,1.657,0,3.54,0 M30.908,74.287h0.36"/><path fill="#472b29" d="M16.931,70.547c0-1.85,1.239-3.483,3.003-4.038c-0.001-0.035-0.001-0.069-0.001-0.103 c0-2.411,1.999-4.373,4.457-4.373c1.056,0,2.051,0.359,2.842,1.007c0.268-0.893,0.798-1.689,1.546-2.302 c1.041-0.853,2.361-1.238,3.726-1.071c2.074,0.248,3.789,1.824,4.17,3.833c0.046,0.243,0.074,0.485,0.083,0.727 c0.437-0.21,0.921-0.323,1.414-0.323c1.506,0,2.791,1.028,3.135,2.424c0.64-0.06,1.27,0.019,1.88,0.244 c1.637,0.602,2.782,2.131,2.849,3.806c0.046,1.149-0.37,2.242-1.173,3.078c-0.813,0.846-1.959,1.331-3.144,1.331h-8.807 c-0.276,0-0.5-0.224-0.5-0.5s0.224-0.5,0.5-0.5h8.807c0.927,0,1.788-0.364,2.423-1.024c0.612-0.637,0.93-1.47,0.895-2.346 c-0.051-1.274-0.933-2.442-2.195-2.905c-0.603-0.223-1.207-0.263-1.846-0.125c-0.142,0.031-0.29-0.002-0.406-0.089 c-0.116-0.088-0.188-0.22-0.198-0.366c-0.076-1.136-1.052-2.027-2.221-2.027c-0.626,0-1.207,0.249-1.635,0.7 c-0.154,0.163-0.397,0.202-0.594,0.1c-0.198-0.104-0.303-0.326-0.258-0.545c0.1-0.482,0.103-0.977,0.009-1.472 c-0.301-1.585-1.661-2.83-3.307-3.027c-1.088-0.126-2.144,0.173-2.973,0.853c-0.804,0.66-1.29,1.584-1.369,2.604 c-0.016,0.206-0.157,0.38-0.355,0.44c-0.198,0.057-0.413-0.01-0.539-0.174c-0.662-0.858-1.668-1.349-2.76-1.349 c-1.906,0-3.457,1.513-3.457,3.373c0,0.142,0.012,0.28,0.03,0.417c0.033,0.26-0.14,0.501-0.396,0.554 c-1.528,0.312-2.636,1.646-2.636,3.17c0,1.786,1.49,3.239,3.321,3.239h3.54c0.276,0,0.5,0.224,0.5,0.5s-0.224,0.5-0.5,0.5h-3.54 C18.868,74.788,16.93,72.886,16.931,70.547z M30.408,74.288c0-0.276,0.224-0.5,0.5-0.5h0.36c0.276,0,0.5,0.224,0.5,0.5 s-0.224,0.5-0.5,0.5h-0.36C30.632,74.788,30.408,74.564,30.408,74.288z"/><g><path fill="#472b29" d="M22.958,68.984c0.018,0,0.036-0.002,0.055-0.006c0.135-0.03,0.22-0.164,0.189-0.299 c-0.037-0.164-0.094-0.325-0.17-0.479c-0.604-1.224-2.272-1.677-3.722-1.007c-0.125,0.058-0.18,0.206-0.122,0.331 c0.058,0.126,0.207,0.179,0.332,0.122c1.201-0.556,2.577-0.208,3.063,0.774c0.058,0.118,0.102,0.242,0.13,0.367 C22.74,68.905,22.843,68.984,22.958,68.984z"/></g><g><path fill="#472b29" d="M28.117,74.788h1.107c0.276,0,0.5-0.224,0.5-0.5s-0.224-0.5-0.5-0.5h-1.107 c-0.276,0-0.5,0.224-0.5,0.5S27.84,74.788,28.117,74.788z"/></g></g><g><path fill="#472b29" d="M50.5,35.75c-0.138,0-0.25-0.112-0.25-0.25v-8c0-0.138,0.112-0.25,0.25-0.25s0.25,0.112,0.25,0.25v8 C50.75,35.638,50.638,35.75,50.5,35.75z"/></g><g><path fill="#472b29" d="M35.5,50.75h-8c-0.138,0-0.25-0.112-0.25-0.25s0.112-0.25,0.25-0.25h8c0.138,0,0.25,0.112,0.25,0.25 S35.638,50.75,35.5,50.75z"/></g></svg>