<svg xmlns="http://www.w3.org/2000/svg"  viewBox="0 0 100 100" width="200px" height="200px"><path fill="#c7ede6" d="M88.704,55.881c0.3-0.616,0.566-1.264,0.796-1.943c2.633-7.77-1.349-17.078-9.733-19.325C78.86,23.23,70.86,15.421,61.826,14.088c-10.341-1.525-19.814,5.044-22.966,15.485c-3.799-1.346-7.501-1.182-10.99,0.857c-1.583,0.732-3.031,1.812-4.33,3.233c-1.907,2.086-3.147,4.719-3.652,7.495c-0.748,0.118-1.483,0.236-2.176,0.484c-4.04,1.449-6.589,4.431-7.288,8.923c-0.435,2.797,0.443,5.587,0.933,6.714c1.935,4.455,6.422,6.98,10.981,6.312c0.227-0.033,0.557,0.069,0.752,0.233c0.241,7.12,3.698,13.417,8.884,17.014c8.321,5.772,19.027,3.994,25.781-3.921c2.894,2.96,6.338,4.398,10.384,3.876c4.023-0.519,7.147-2.739,9.426-6.349c1.053,0.283,2.051,0.691,3.083,0.804c4.042,0.442,7.324-1.165,9.732-4.8c0.922-1.391,1.793-3.194,1.793-6.354C92.174,60.838,90.88,57.871,88.704,55.881z"/><path fill="#fff" d="M18.368 47.917H8.338c-.276 0-.5-.224-.5-.5s.224-.5.5-.5h10.03c.276 0 .5.224.5.5S18.645 47.917 18.368 47.917zM21.25 47.917h-1.446c-.276 0-.5-.224-.5-.5s.224-.5.5-.5h1.446c.276 0 .5.224.5.5S21.526 47.917 21.25 47.917zM25.304 47.917h-2.545c-.276 0-.5-.224-.5-.5s.224-.5.5-.5h2.545c.276 0 .5.224.5.5S25.58 47.917 25.304 47.917zM25.304 49.782h-9.616c-.276 0-.5-.224-.5-.5s.224-.5.5-.5h9.616c.276 0 .5.224.5.5S25.58 49.782 25.304 49.782zM13.956 49.782h-.58c-.276 0-.5-.224-.5-.5s.224-.5.5-.5h.58c.276 0 .5.224.5.5S14.233 49.782 13.956 49.782zM11.579 49.782h-1.456c-.276 0-.5-.224-.5-.5s.224-.5.5-.5h1.456c.276 0 .5.224.5.5S11.856 49.782 11.579 49.782zM20.715 46.053h-5.027c-.276 0-.5-.224-.5-.5s.224-.5.5-.5h5.027c.276 0 .5.224.5.5S20.991 46.053 20.715 46.053zM20.715 44.187h-1.257c-.276 0-.5-.224-.5-.5s.224-.5.5-.5h1.257c.276 0 .5.224.5.5S20.991 44.187 20.715 44.187zM17.447 51.647h-1.759c-.276 0-.5-.224-.5-.5s.224-.5.5-.5h1.759c.276 0 .5.224.5.5S17.723 51.647 17.447 51.647zM71.547 21.64H61.516c-.276 0-.5-.224-.5-.5s.224-.5.5-.5h10.031c.276 0 .5.224.5.5S71.823 21.64 71.547 21.64zM74.427 21.64h-1.446c-.276 0-.5-.224-.5-.5s.224-.5.5-.5h1.446c.276 0 .5.224.5.5S74.704 21.64 74.427 21.64zM78.482 21.64h-2.546c-.276 0-.5-.224-.5-.5s.224-.5.5-.5h2.546c.276 0 .5.224.5.5S78.759 21.64 78.482 21.64zM76.456 17.91H66.84c-.276 0-.5-.224-.5-.5s.224-.5.5-.5h9.616c.276 0 .5.224.5.5S76.733 17.91 76.456 17.91zM65.108 17.91h-.58c-.276 0-.5-.224-.5-.5s.224-.5.5-.5h.58c.276 0 .5.224.5.5S65.384 17.91 65.108 17.91zM62.732 17.91h-1.457c-.276 0-.5-.224-.5-.5s.224-.5.5-.5h1.457c.276 0 .5.224.5.5S63.008 17.91 62.732 17.91zM73.893 19.776h-5.027c-.276 0-.5-.224-.5-.5s.224-.5.5-.5h5.027c.276 0 .5.224.5.5S74.17 19.776 73.893 19.776z"/><path fill="#fff" d="M73.893 17.91h-1.257c-.276 0-.5-.224-.5-.5s.224-.5.5-.5h1.257c.276 0 .5.224.5.5S74.17 17.91 73.893 17.91zM67.41 19.776h-1.759c-.276 0-.5-.224-.5-.5s.224-.5.5-.5h1.759c.276 0 .5.224.5.5S67.687 19.776 67.41 19.776z"/><path fill="#fdfcef" d="M41.68,41.769c1.883,0,3.517,0,3.54,0c2.11,0,3.821-1.674,3.821-3.739c0-1.802-1.302-3.305-3.035-3.66c0.02-0.158,0.034-0.317,0.034-0.48c0-2.139-1.772-3.873-3.957-3.873c-1.29,0-2.433,0.607-3.155,1.543c-0.185-2.381-2.358-4.218-4.9-3.913c-1.859,0.223-3.397,1.629-3.739,3.431c-0.11,0.578-0.098,1.139,0.011,1.665c-0.498-0.525-1.208-0.856-1.998-0.856c-1.446,0-2.627,1.102-2.72,2.494c-0.657-0.142-1.371-0.133-2.123,0.143c-1.438,0.528-2.462,1.853-2.522,3.356c-0.085,2.133,1.657,3.889,3.818,3.889c0.164,0,0.741,0,0.874,0h7.934 M35.202,41.769h0.36"/><path fill="#472b29" d="M45.22,42.269h-3.54c-0.276,0-0.5-0.224-0.5-0.5s0.224-0.5,0.5-0.5h3.54c1.831,0,3.321-1.453,3.321-3.239c0-1.524-1.108-2.857-2.636-3.17c-0.256-0.052-0.429-0.293-0.396-0.553c0.018-0.137,0.03-0.276,0.03-0.417c0-1.86-1.551-3.373-3.457-3.373c-1.092,0-2.098,0.492-2.759,1.349c-0.127,0.164-0.341,0.233-0.539,0.173c-0.198-0.059-0.339-0.234-0.355-0.44c-0.079-1.019-0.565-1.943-1.369-2.603c-0.828-0.68-1.884-0.983-2.973-0.853c-1.646,0.197-3.006,1.442-3.308,3.028c-0.094,0.495-0.09,0.989,0.01,1.471c0.045,0.219-0.06,0.441-0.258,0.544c-0.197,0.104-0.44,0.063-0.595-0.099c-0.429-0.452-1.009-0.701-1.635-0.701c-1.169,0-2.145,0.891-2.221,2.028c-0.01,0.145-0.082,0.279-0.198,0.366c-0.116,0.087-0.264,0.12-0.407,0.089c-0.638-0.138-1.242-0.098-1.845,0.124c-1.262,0.464-2.144,1.631-2.195,2.906c-0.035,0.875,0.283,1.708,0.895,2.345c0.635,0.661,1.495,1.024,2.423,1.024h8.808c0.276,0,0.5,0.224,0.5,0.5s-0.224,0.5-0.5,0.5h-8.808c-1.185,0-2.331-0.485-3.144-1.332c-0.803-0.835-1.219-1.928-1.173-3.078c0.067-1.674,1.212-3.203,2.849-3.805c0.611-0.225,1.242-0.306,1.88-0.245c0.344-1.396,1.629-2.424,3.135-2.424c0.493,0,0.976,0.113,1.414,0.323c0.009-0.241,0.036-0.483,0.082-0.726c0.381-2.009,2.097-3.586,4.171-3.834c1.36-0.159,2.685,0.218,3.726,1.073c0.748,0.613,1.278,1.409,1.546,2.301c0.791-0.648,1.785-1.007,2.842-1.007c2.458,0,4.457,1.962,4.457,4.373c0,0.034,0,0.068-0.001,0.103c1.764,0.555,3.003,2.188,3.003,4.038C49.541,40.367,47.602,42.269,45.22,42.269z M35.562,42.269h-0.359c-0.276,0-0.5-0.224-0.5-0.5s0.224-0.5,0.5-0.5h0.359c0.276,0,0.5,0.224,0.5,0.5S35.838,42.269,35.562,42.269z"/><path fill="#472b29" d="M43.512 36.466c-.018 0-.036-.002-.055-.006-.135-.03-.219-.164-.189-.299.037-.166.094-.327.169-.479.604-1.224 2.273-1.675 3.722-1.007.125.058.18.207.122.332-.058.125-.207.18-.332.122-1.204-.556-2.579-.208-3.063.774-.058.117-.101.24-.129.367C43.73 36.387 43.627 36.466 43.512 36.466zM38.354 42.269h-1.107c-.276 0-.5-.224-.5-.5s.224-.5.5-.5h1.107c.276 0 .5.224.5.5S38.63 42.269 38.354 42.269z"/><path fill="#77cbd2" d="M56.033,69.298c0,0,15.998,0,16.095,0c3.694,0,6.689-2.995,6.689-6.69c0-3.223-2.28-5.913-5.315-6.547c0.035-0.282,0.059-0.568,0.059-0.859c0-3.827-3.102-6.929-6.928-6.929c-2.259,0-4.26,1.086-5.524,2.76c-0.323-4.259-4.128-7.545-8.579-7.001c-3.255,0.398-5.947,2.914-6.546,6.138c-0.192,1.034-0.172,2.038,0.019,2.98c-0.873-0.94-2.115-1.532-3.499-1.532c-2.532,0-4.599,1.971-4.762,4.462c-1.15-0.254-2.4-0.238-3.718,0.257c-2.518,0.945-4.311,3.316-4.416,6.003c-0.149,3.817,2.901,6.958,6.684,6.958c0.287,0,1.297,0,1.53,0h13.891"/><path fill="#472b29" d="M72.129,69.998H56.033c-0.387,0-0.7-0.313-0.7-0.7s0.313-0.7,0.7-0.7h16.095c3.303,0,5.989-2.687,5.989-5.989c0-2.821-2.001-5.286-4.758-5.862c-0.357-0.074-0.597-0.41-0.552-0.771c0.032-0.254,0.054-0.511,0.054-0.773c0-3.434-2.794-6.228-6.228-6.228c-1.964,0-3.774,0.904-4.966,2.481c-0.176,0.232-0.477,0.33-0.756,0.25c-0.279-0.082-0.479-0.329-0.5-0.619c-0.143-1.88-1.063-3.646-2.526-4.845c-1.478-1.211-3.35-1.749-5.271-1.514c-2.957,0.362-5.401,2.653-5.942,5.571c-0.169,0.913-0.164,1.825,0.017,2.712c0.062,0.307-0.087,0.619-0.366,0.762c-0.279,0.144-0.62,0.083-0.833-0.146c-0.783-0.843-1.844-1.308-2.986-1.308c-2.139,0-3.924,1.672-4.063,3.808c-0.014,0.204-0.115,0.392-0.278,0.514c-0.164,0.122-0.372,0.167-0.572,0.124c-1.147-0.255-2.234-0.179-3.32,0.229c-2.278,0.855-3.87,3.015-3.962,5.375c-0.065,1.647,0.527,3.207,1.667,4.392c1.14,1.186,2.673,1.838,4.318,1.838h15.42c0.387,0,0.7,0.313,0.7,0.7s-0.313,0.7-0.7,0.7h-15.42c-2.029,0-3.92-0.806-5.327-2.268c-1.406-1.462-2.136-3.386-2.057-5.417c0.114-2.916,2.071-5.581,4.869-6.631c1.094-0.41,2.225-0.547,3.37-0.412c0.523-2.494,2.743-4.352,5.356-4.352c0.93,0,1.84,0.242,2.645,0.687c0-0.519,0.049-1.041,0.146-1.562c0.652-3.512,3.592-6.27,7.149-6.705c2.302-0.281,4.552,0.365,6.328,1.821c1.369,1.123,2.343,2.659,2.788,4.353c1.385-1.245,3.169-1.938,5.073-1.938c4.206,0,7.628,3.422,7.628,7.628c0,0.11-0.003,0.22-0.009,0.329c3.085,0.926,5.265,3.808,5.265,7.078C79.518,66.683,76.203,69.998,72.129,69.998z"/><path fill="#472b29" d="M68.556,59.613c-0.018,0-0.037-0.002-0.056-0.006c-0.135-0.031-0.219-0.165-0.188-0.299c0.066-0.291,0.166-0.573,0.294-0.838c1.049-2.173,3.894-3.002,6.337-1.851c0.125,0.059,0.179,0.208,0.12,0.333c-0.059,0.126-0.209,0.177-0.333,0.12c-2.199-1.035-4.742-0.311-5.674,1.616c-0.112,0.231-0.199,0.478-0.257,0.731C68.774,59.534,68.671,59.613,68.556,59.613z"/><path fill="#c0e5e4" d="M30.645 23.092L64.26 26.625 58.378 33.717 59.678 40.391 52.654 39.685 48.755 43.415z"/><path fill="#472b29" d="M48.755,43.915c-0.007,0-0.013,0-0.02,0c-0.135-0.005-0.263-0.065-0.354-0.167l-18.11-20.323c-0.137-0.154-0.166-0.377-0.071-0.561c0.093-0.184,0.287-0.296,0.497-0.269l33.616,3.533c0.184,0.019,0.341,0.138,0.411,0.309c0.07,0.17,0.04,0.366-0.078,0.508l-5.731,6.91l1.254,6.442c0.03,0.155-0.015,0.316-0.121,0.433c-0.106,0.117-0.263,0.173-0.419,0.161l-6.795-0.684l-3.732,3.571C49.008,43.866,48.884,43.915,48.755,43.915z M31.878,23.724l16.906,18.972l3.524-3.372c0.106-0.101,0.25-0.146,0.396-0.136l6.354,0.639l-1.171-6.014c-0.029-0.147,0.01-0.299,0.106-0.415l5.286-6.374L31.878,23.724z"/><path fill="#77cbd2" d="M59.139 40.176L55.265 36.609 30.645 23.092 57.948 33.523z"/><path fill="#472b29" d="M59.139,40.576c-0.097,0-0.194-0.035-0.271-0.105l-3.874-3.567L30.452,23.442c-0.184-0.101-0.259-0.327-0.171-0.518c0.087-0.19,0.308-0.282,0.504-0.208L58.42,33.063c0.207,0.077,0.312,0.308,0.234,0.515c-0.077,0.208-0.31,0.312-0.515,0.234l-22.438-8.399l19.755,10.846l3.953,3.623c0.163,0.15,0.173,0.403,0.023,0.565C59.355,40.533,59.247,40.576,59.139,40.576z"/><path fill="#c0e5e4" d="M55.361 37.057L52.654 39.685"/><path fill="#472b29" d="M52.654 40.185c-.13 0-.261-.051-.359-.152-.192-.198-.188-.515.011-.707l2.707-2.628c.198-.192.514-.188.707.011.192.198.188.515-.011.707l-2.707 2.628C52.905 40.138 52.78 40.185 52.654 40.185zM50.987 31.172c.21 1.195.42 2.39.629 3.585.056.316.537.182.482-.133-.21-1.195-.42-2.39-.629-3.585C51.414 30.723 50.932 30.857 50.987 31.172L50.987 31.172zM48.799 30.279c.163 1.105.327 2.211.49 3.316.047.317.529.182.482-.133-.163-1.105-.327-2.211-.49-3.316C49.235 29.829 48.753 29.964 48.799 30.279L48.799 30.279zM46.403 29.372c.194.995.389 1.99.583 2.986.062.316.544.182.482-.133-.194-.995-.389-1.99-.583-2.986C46.823 28.924 46.341 29.057 46.403 29.372L46.403 29.372zM43.867 28.446c.174.817.323 1.64.496 2.457.067.315.549.181.482-.133-.174-.817-.323-1.64-.496-2.457C44.282 27.998 43.8 28.131 43.867 28.446L43.867 28.446zM41.518 27.59c.136.643.272 1.286.408 1.93.067.315.549.181.482-.133-.136-.643-.272-1.286-.408-1.93C41.933 27.142 41.451 27.276 41.518 27.59L41.518 27.59zM38.803 26.62c.075.47.15.941.226 1.411.051.317.533.182.482-.133-.075-.47-.15-.941-.226-1.411C39.234 26.171 38.752 26.305 38.803 26.62L38.803 26.62zM72.993 52.083c-.079 0-.158-.024-.225-.076-1.542-1.162-2.644-2.93-3.023-4.851-.161-.815-.161-1.572-.077-2.241-.384-.035-.774-.095-1.161-.18-.202-.044-.33-.245-.286-.447.044-.203.243-.33.447-.286.378.083.759.141 1.133.171.161-.689.395-1.246.583-1.622.618-1.234 2.552-3.061 4.099-2.936.52.033 1.218.295 1.59 1.355.254.726.151 1.421-.299 2.011-1.052 1.379-3.752 1.917-5.354 1.957-.084.615-.09 1.315.059 2.071.345 1.742 1.343 3.345 2.739 4.397.166.125.199.36.074.525C73.219 52.032 73.107 52.083 72.993 52.083zM74.358 40.362c-1.132 0-2.79 1.501-3.303 2.526-.155.309-.343.751-.484 1.296 1.483-.068 3.786-.579 4.607-1.656.298-.391.359-.819.187-1.309-.192-.548-.497-.828-.93-.855C74.409 40.363 74.384 40.362 74.358 40.362zM67.149 44.347c-.032 0-.064-.004-.096-.012-.229-.06-1.125-.31-1.351-.382-.197-.063-.306-.274-.243-.472.063-.196.273-.304.472-.243.218.07 1.091.313 1.312.371.2.053.32.258.268.458C67.467 44.236 67.315 44.347 67.149 44.347zM64.555 43.394c-.055 0-.11-.012-.163-.038-.49-.238-.995-.518-1.499-.833-.176-.109-.229-.341-.119-.517.11-.175.34-.229.517-.119.481.301.962.568 1.429.794.187.09.264.314.174.501C64.828 43.317 64.695 43.394 64.555 43.394zM53.275 31.937c.232 1.258.464 2.516.695 3.773.058.316.54.182.482-.133-.232-1.258-.464-2.516-.695-3.773C53.699 31.488 53.217 31.622 53.275 31.937L53.275 31.937zM55.61 32.733c.452 1.91.904 3.821 1.356 5.731.074.313.556.18.482-.133-.452-1.91-.904-3.821-1.356-5.731C56.019 32.287 55.536 32.42 55.61 32.733L55.61 32.733zM61.901 41.741c-.086 0-.172-.029-.242-.089l-.357-.302c-.158-.133-.178-.37-.044-.528.134-.159.371-.177.528-.044l.357.302c.158.133.178.37.044.528C62.113 41.697 62.008 41.741 61.901 41.741z"/><g><path fill="#fdfcef" d="M74.861,70.669c0,0,10.649,0,10.713,0c2.459,0,4.452-1.994,4.452-4.453c0-2.145-1.518-3.936-3.538-4.358c0.023-0.188,0.039-0.378,0.039-0.572c0-2.547-2.065-4.612-4.612-4.612c-1.504,0-2.835,0.723-3.677,1.837c-0.215-2.835-2.748-5.022-5.711-4.66c-2.167,0.265-3.959,1.94-4.357,4.086c-0.128,0.688-0.115,1.356,0.013,1.983c-0.581-0.626-1.408-1.019-2.329-1.019c-1.685,0-3.061,1.312-3.17,2.97c-0.765-0.169-1.598-0.158-2.475,0.171c-1.676,0.629-2.869,2.207-2.939,3.996c-0.099,2.54,1.931,4.631,4.449,4.631c0.191,0,0.863,0,1.019,0h9.246"/><path fill="#472b29" d="M85.574,71.169H74.861c-0.276,0-0.5-0.224-0.5-0.5s0.224-0.5,0.5-0.5h10.713c2.18,0,3.953-1.773,3.953-3.953c0-1.862-1.32-3.488-3.14-3.869c-0.255-0.053-0.426-0.293-0.394-0.551c0.021-0.167,0.035-0.337,0.035-0.51c0-2.267-1.844-4.111-4.111-4.111c-1.297,0-2.492,0.597-3.278,1.638c-0.125,0.167-0.338,0.24-0.54,0.178c-0.199-0.059-0.342-0.234-0.357-0.441c-0.094-1.243-0.703-2.409-1.669-3.201c-0.976-0.8-2.212-1.152-3.482-1c-1.953,0.239-3.568,1.752-3.926,3.681c-0.112,0.603-0.108,1.206,0.011,1.792c0.045,0.22-0.062,0.442-0.261,0.544c-0.201,0.102-0.442,0.06-0.595-0.104c-0.514-0.555-1.211-0.86-1.962-0.86c-1.406,0-2.579,1.1-2.67,2.503c-0.01,0.146-0.082,0.28-0.199,0.367s-0.267,0.118-0.408,0.088c-0.759-0.167-1.474-0.119-2.191,0.151c-1.504,0.564-2.555,1.99-2.616,3.547c-0.042,1.087,0.349,2.117,1.101,2.898c0.752,0.783,1.764,1.213,2.849,1.213h10.264c0.276,0,0.5,0.224,0.5,0.5s-0.224,0.5-0.5,0.5H61.722c-1.359,0-2.627-0.54-3.57-1.52s-1.432-2.269-1.379-3.631c0.076-1.954,1.388-3.74,3.263-4.444c0.723-0.271,1.471-0.365,2.228-0.279c0.363-1.66,1.847-2.894,3.592-2.894c0.605,0,1.199,0.152,1.727,0.434c0.004-0.329,0.037-0.659,0.098-0.989c0.438-2.353,2.407-4.2,4.789-4.49c1.544-0.191,3.048,0.244,4.237,1.219c0.903,0.74,1.549,1.748,1.853,2.861c0.922-0.811,2.102-1.261,3.358-1.261c2.818,0,5.111,2.293,5.111,5.111c0,0.065-0.001,0.13-0.004,0.194c2.054,0.629,3.503,2.554,3.503,4.736C90.527,68.948,88.305,71.169,85.574,71.169z"/><g><path fill="#fdfcef" d="M87.377,62.38c-1.548-0.73-3.337-0.213-3.998,1.154c-0.082,0.17-0.143,0.345-0.183,0.522"/><path fill="#472b29" d="M83.197,64.306c-0.018,0-0.037-0.002-0.056-0.006c-0.135-0.031-0.219-0.165-0.188-0.299c0.045-0.199,0.113-0.393,0.202-0.575c0.719-1.487,2.661-2.058,4.329-1.271c0.125,0.059,0.179,0.208,0.12,0.333c-0.059,0.125-0.209,0.178-0.333,0.12c-1.422-0.67-3.066-0.206-3.666,1.037c-0.072,0.148-0.127,0.306-0.165,0.469C83.414,64.228,83.311,64.306,83.197,64.306z"/></g></g></svg>