<svg xmlns="http://www.w3.org/2000/svg"  viewBox="0 0 100 100" width="200px" height="200px"><path fill="#c7ede6" d="M87.215,56.71C88.35,54.555,89,52.105,89,49.5c0-6.621-4.159-12.257-10.001-14.478 C78.999,35.015,79,35.008,79,35c0-11.598-9.402-21-21-21c-9.784,0-17.981,6.701-20.313,15.757C36.211,29.272,34.638,29,33,29 c-7.692,0-14.023,5.793-14.89,13.252C12.906,43.353,9,47.969,9,53.5C9,59.851,14.149,65,20.5,65c0.177,0,0.352-0.012,0.526-0.022 C21.022,65.153,21,65.324,21,65.5C21,76.822,30.178,86,41.5,86c6.437,0,12.175-2.972,15.934-7.614C59.612,80.611,62.64,82,66,82 c4.65,0,8.674-2.65,10.666-6.518C77.718,75.817,78.837,76,80,76c6.075,0,11-4.925,11-11C91,61.689,89.53,58.727,87.215,56.71z"/><path fill="#fff" d="M15.405,51H5.5C5.224,51,5,50.776,5,50.5S5.224,50,5.5,50h9.905c0.276,0,0.5,0.224,0.5,0.5 S15.682,51,15.405,51z"/><path fill="#fff" d="M18.5,51h-1c-0.276,0-0.5-0.224-0.5-0.5s0.224-0.5,0.5-0.5h1c0.276,0,0.5,0.224,0.5,0.5 S18.777,51,18.5,51z"/><path fill="#fff" d="M23.491,53H14.5c-0.276,0-0.5-0.224-0.5-0.5s0.224-0.5,0.5-0.5h8.991c0.276,0,0.5,0.224,0.5,0.5 S23.767,53,23.491,53z"/><path fill="#fff" d="M12.5,53h-1c-0.276,0-0.5-0.224-0.5-0.5s0.224-0.5,0.5-0.5h1c0.276,0,0.5,0.224,0.5,0.5 S12.777,53,12.5,53z"/><path fill="#fff" d="M9.5,53h-2C7.224,53,7,52.776,7,52.5S7.224,52,7.5,52h2c0.276,0,0.5,0.224,0.5,0.5S9.777,53,9.5,53 z"/><path fill="#fff" d="M15.5,55h-2c-0.276,0-0.5-0.224-0.5-0.5s0.224-0.5,0.5-0.5h2c0.276,0,0.5,0.224,0.5,0.5 S15.776,55,15.5,55z"/><path fill="#fff" d="M18.5,46c-0.177,0-0.823,0-1,0c-0.276,0-0.5,0.224-0.5,0.5c0,0.276,0.224,0.5,0.5,0.5 c0.177,0,0.823,0,1,0c0.276,0,0.5-0.224,0.5-0.5C19,46.224,18.776,46,18.5,46z"/><path fill="#fff" d="M18.5,48c-0.177,0-4.823,0-5,0c-0.276,0-0.5,0.224-0.5,0.5c0,0.276,0.224,0.5,0.5,0.5 c0.177,0,4.823,0,5,0c0.276,0,0.5-0.224,0.5-0.5C19,48.224,18.776,48,18.5,48z"/><path fill="#fff" d="M23.5,50c-0.177,0-2.823,0-3,0c-0.276,0-0.5,0.224-0.5,0.5c0,0.276,0.224,0.5,0.5,0.5 c0.177,0,2.823,0,3,0c0.276,0,0.5-0.224,0.5-0.5C24,50.224,23.776,50,23.5,50z"/><path fill="#fff" d="M84.5,44h-10c-0.276,0-0.5-0.224-0.5-0.5s0.224-0.5,0.5-0.5h10c0.276,0,0.5,0.224,0.5,0.5 S84.776,44,84.5,44z"/><path fill="#fff" d="M88.5,44h-2c-0.276,0-0.5-0.224-0.5-0.5s0.224-0.5,0.5-0.5h2c0.276,0,0.5,0.224,0.5,0.5 S88.776,44,88.5,44z"/><path fill="#fff" d="M93.5,46h-10c-0.276,0-0.5-0.224-0.5-0.5s0.224-0.5,0.5-0.5h10c0.276,0,0.5,0.224,0.5,0.5 S93.777,46,93.5,46z"/><path fill="#fff" d="M81.5,46h-1c-0.276,0-0.5-0.224-0.5-0.5s0.224-0.5,0.5-0.5h1c0.276,0,0.5,0.224,0.5,0.5 S81.776,46,81.5,46z"/><path fill="#fff" d="M78.375,46H76.5c-0.276,0-0.5-0.224-0.5-0.5s0.224-0.5,0.5-0.5h1.875c0.276,0,0.5,0.224,0.5,0.5 S78.651,46,78.375,46z"/><path fill="#fff" d="M87.5,42h-5c-0.276,0-0.5-0.224-0.5-0.5s0.224-0.5,0.5-0.5h5c0.276,0,0.5,0.224,0.5,0.5 S87.777,42,87.5,42z"/><path fill="#fff" d="M84.5,48h-2c-0.276,0-0.5-0.224-0.5-0.5s0.224-0.5,0.5-0.5h2c0.276,0,0.5,0.224,0.5,0.5 S84.776,48,84.5,48z"/><path fill="#c6dff1" d="M54.832,27.495C40.053,27.495,23,43.032,23,51.747C23,61.6,39.674,76,48.768,76	c0,0,1.516-3.032,1.516-6.063c0-2.853-1.516-5.533-1.516-8.337c0-3.789,1.035-5.67,5.305-9.095	c3.032,6.821,12.884,6.063,12.884,6.063s1.516,3.789,7.579,3.789c3.032,0,3.789-0.758,3.789-0.758l1.326-5.045	c0,0,1.229-3.586-2.083-5.566c-6.592-6.365-8.519-10.913-8.519-10.913s-0.249-3.135-1.232-4.106	c-0.981-0.971-6.923-6.203-6.923-6.203l2.171-6.82C63.066,22.949,57.292,23.395,54.832,27.495z"/><g><path fill="#472b29" d="M46.75,72.5c-0.021,0-0.043-0.003-0.065-0.009c-0.133-0.036-0.212-0.173-0.176-0.307 c0.226-0.834,0.34-1.578,0.34-2.211c0-0.935-0.323-2.07-0.635-3.168c-0.413-1.479-0.881-3.154-0.881-5.017 c0-2.854,0.598-5.017,1.938-7.011c0.076-0.114,0.231-0.146,0.347-0.067c0.114,0.076,0.145,0.231,0.067,0.347 c-1.28,1.906-1.852,3.982-1.852,6.731c0,1.793,0.458,3.434,0.862,4.881c0.321,1.13,0.653,2.3,0.653,3.304 c0,0.677-0.12,1.465-0.357,2.342C46.961,72.427,46.86,72.5,46.75,72.5z"/><path fill="#472b29" d="M48.614,53.714c-0.06,0-0.119-0.021-0.167-0.063c-0.103-0.092-0.111-0.25-0.02-0.354 c0.451-0.504,0.953-1.005,1.534-1.531c0.103-0.094,0.259-0.086,0.354,0.018c0.093,0.103,0.085,0.261-0.018,0.354 c-0.568,0.514-1.058,1.003-1.497,1.494C48.751,53.686,48.683,53.714,48.614,53.714z"/><path fill="#472b29" d="M51.267,51.22c-0.072,0-0.144-0.031-0.193-0.091c-0.087-0.106-0.072-0.265,0.034-0.353 c0.29-0.238,0.589-0.479,0.899-0.723c0.105-0.085,0.267-0.068,0.351,0.042c0.086,0.108,0.066,0.266-0.042,0.351 c-0.307,0.242-0.604,0.48-0.89,0.717C51.379,51.201,51.322,51.22,51.267,51.22z"/></g><g><path fill="#fdfcef" d="M41.804,32.531c2.2,0,3.821-1.674,3.821-3.739c0-1.802-1.302-3.305-3.035-3.66 c0.02-0.158,0.034-0.317,0.034-0.48c0-2.139-1.772-3.873-3.957-3.873c-1.29,0-2.433,0.607-3.155,1.543 c-0.185-2.381-2.358-4.218-4.9-3.913c-1.859,0.223-3.397,1.629-3.739,3.431c-0.11,0.578-0.098,1.139,0.011,1.665 c-0.498-0.525-1.208-0.856-1.998-0.856c-1.446,0-2.627,1.102-2.72,2.494c-0.657-0.142-1.371-0.133-2.123,0.143 c-1.438,0.528-2.462,1.853-2.522,3.356c-0.085,2.133,1.657,3.889,3.818,3.889c0.164,0,0.741,0,0.874,0 C22.211,32.531,40.25,32.531,41.804,32.531z M31.786,32.531h0.36"/><path fill="#472b29" d="M41.804,33.031h-3.54c-0.276,0-0.5-0.224-0.5-0.5s0.224-0.5,0.5-0.5h3.54 c1.831,0,3.321-1.453,3.321-3.239c0-1.524-1.108-2.857-2.637-3.17c-0.257-0.052-0.429-0.294-0.396-0.554 c0.018-0.137,0.03-0.275,0.03-0.416c0-1.86-1.551-3.373-3.457-3.373c-1.093,0-2.099,0.491-2.76,1.348 c-0.125,0.165-0.343,0.232-0.538,0.174c-0.198-0.059-0.34-0.234-0.355-0.44c-0.079-1.019-0.565-1.943-1.37-2.603 c-0.828-0.68-1.886-0.984-2.973-0.853c-1.646,0.197-3.006,1.442-3.307,3.028c-0.094,0.494-0.091,0.988,0.009,1.471 c0.046,0.219-0.06,0.441-0.258,0.544c-0.196,0.104-0.439,0.064-0.595-0.099c-0.428-0.451-1.008-0.7-1.635-0.7 c-1.17,0-2.146,0.891-2.221,2.027c-0.01,0.145-0.082,0.279-0.198,0.366c-0.115,0.088-0.263,0.12-0.406,0.089 c-0.639-0.139-1.241-0.097-1.847,0.124c-1.262,0.464-2.144,1.632-2.193,2.906c-0.035,0.875,0.282,1.708,0.895,2.345 c0.635,0.661,1.495,1.024,2.423,1.024h8.808c0.276,0,0.5,0.224,0.5,0.5s-0.224,0.5-0.5,0.5h-8.808 c-1.185,0-2.331-0.485-3.144-1.332c-0.803-0.835-1.219-1.928-1.174-3.078c0.066-1.674,1.212-3.203,2.849-3.805 c0.612-0.225,1.245-0.307,1.881-0.245c0.345-1.396,1.629-2.424,3.136-2.424c0.493,0,0.977,0.113,1.413,0.323 c0.01-0.242,0.037-0.484,0.083-0.726c0.381-2.009,2.096-3.585,4.17-3.834c1.364-0.16,2.686,0.218,3.727,1.073 c0.747,0.613,1.278,1.409,1.546,2.301c0.791-0.648,1.785-1.006,2.843-1.006c2.458,0,4.457,1.961,4.457,4.373 c0,0.034-0.001,0.068-0.002,0.103c1.765,0.555,3.004,2.188,3.004,4.038C46.125,31.129,44.187,33.031,41.804,33.031z M32.146,33.031h-0.359c-0.276,0-0.5-0.224-0.5-0.5s0.224-0.5,0.5-0.5h0.359c0.276,0,0.5,0.224,0.5,0.5 S32.422,33.031,32.146,33.031z"/><path fill="#472b29" d="M40.097,27.227c-0.018,0-0.036-0.002-0.055-0.006c-0.135-0.03-0.22-0.164-0.189-0.299 c0.038-0.167,0.095-0.329,0.17-0.479c0.604-1.223,2.273-1.673,3.721-1.006c0.126,0.058,0.181,0.207,0.122,0.332 c-0.057,0.125-0.209,0.179-0.331,0.122c-1.204-0.556-2.579-0.21-3.063,0.774c-0.058,0.115-0.102,0.238-0.13,0.367 C40.314,27.148,40.211,27.227,40.097,27.227z"/><g><path fill="#472b29" d="M34.937,33.031H33.83c-0.276,0-0.5-0.224-0.5-0.5s0.224-0.5,0.5-0.5h1.107 c0.276,0,0.5,0.224,0.5,0.5S35.214,33.031,34.937,33.031z"/></g></g><path fill="#472b29" d="M79.084,57.682c-0.097,0-0.189-0.057-0.229-0.151l-0.035-0.048c-0.744-1.112-1.122-2.149-1.122-3.082	c0-0.551,0.228-1.035,0.64-1.363c0.432-0.345,1.033-0.487,1.561-0.36c0.135,0.03,0.219,0.165,0.188,0.299	c-0.03,0.136-0.165,0.226-0.299,0.188c-0.389-0.086-0.821,0.014-1.138,0.265c-0.206,0.164-0.451,0.466-0.451,0.973	c0,0.832,0.349,1.775,1.037,2.804c0.047,0.069,0.073,0.114,0.079,0.129c0.055,0.127-0.004,0.274-0.131,0.328	C79.15,57.675,79.117,57.682,79.084,57.682z"/><path fill="#472b29" d="M64,41c-1.105,0-2,0.895-2,2s0.895,2,2,2c1.105,0,2-0.895,2-2S65.105,41,64,41z"/><path fill="#f9c941" d="M68.122,36.589L78.5,22.5L63.926,32.797L68.122,36.589z"/><path fill="#472b29" d="M68.524,36.887l-0.805-0.594l8.545-11.602l-12.05,8.514l-0.576-0.816l14.573-10.297	c0.199-0.14,0.473-0.118,0.646,0.059c0.171,0.175,0.19,0.448,0.045,0.646L68.524,36.887z"/><g><path fill="#e23855" d="M27.5,62.5c4.5-5.5,3.5-11.5,8-17C34.625,47.375,34,50.726,34,53c0,3,0.5,5.5,0.5,5.5 c5-5.5,3.185-14.17,9-22c-0.75,2-1,4.5-1,6.5c0,3,1,5.5,1,5.5c4.262-7.061,6.475-18.643,11.332-20.626 C48.625,25,23.125,38.375,23.125,51.625C23.125,57.125,25.875,60.125,27.5,62.5z"/></g><path fill="#472b29" d="M48.769,76.7C39.42,76.7,22.3,62.029,22.3,51.747c0-9.542,17.455-24.685,32.146-24.948	c2.71-4.05,8.323-4.528,8.567-4.548c0.231-0.014,0.458,0.082,0.603,0.264c0.145,0.183,0.188,0.425,0.118,0.647L61.7,29.546	c1.292,1.139,5.751,5.078,6.609,5.927c1.045,1.033,1.355,3.646,1.427,4.424c0.316,0.675,2.429,4.889,8.262,10.535	c2.933,1.803,2.801,4.936,2.316,6.351l-1.312,4.995c-0.031,0.12-0.094,0.229-0.182,0.317c-0.161,0.16-1.123,0.963-4.284,0.963	c-5.24,0-7.348-2.667-7.994-3.769c-1.977,0.064-9.555-0.092-12.703-5.689c-3.72,3.104-4.371,4.805-4.371,8	c0,1.302,0.354,2.587,0.728,3.947c0.388,1.407,0.788,2.863,0.788,4.39c0,3.161-1.524,6.247-1.59,6.377	C49.276,76.55,49.034,76.7,48.769,76.7z M62.058,23.812c-1.699,0.34-4.996,1.329-6.625,4.044c-0.127,0.211-0.354,0.34-0.601,0.34	c-14.64,0-31.132,15.364-31.132,23.552c0,9.313,15.885,23.078,24.624,23.541c0.389-0.893,1.26-3.145,1.26-5.352	c0-1.338-0.358-2.64-0.737-4.019c-0.383-1.39-0.778-2.827-0.778-4.318c0-4.062,1.196-6.134,5.566-9.641	c0.169-0.136,0.392-0.184,0.604-0.135c0.211,0.052,0.387,0.198,0.475,0.396c2.799,6.297,12.096,5.66,12.191,5.649	c0.326-0.016,0.59,0.154,0.704,0.438c0.055,0.132,1.459,3.349,6.929,3.349c1.968,0,2.864-0.334,3.181-0.495l1.258-4.784	c0.056-0.172,1.005-3.132-1.767-4.788c-0.046-0.027-0.088-0.06-0.127-0.097c-6.618-6.391-8.597-10.953-8.678-11.144	c-0.029-0.069-0.047-0.143-0.054-0.218c-0.096-1.195-0.477-3.121-1.025-3.663c-0.956-0.946-6.834-6.123-6.894-6.175	c-0.208-0.184-0.288-0.473-0.204-0.738L62.058,23.812z"/><g><path fill="#472b29" d="M27.5,63c-0.111,0-0.224-0.037-0.316-0.113c-0.214-0.175-0.245-0.489-0.07-0.703 c2.188-2.674,3.023-5.421,3.908-8.329c0.875-2.873,1.779-5.845,4.092-8.671c0.159-0.196,0.44-0.24,0.652-0.106 c0.214,0.134,0.294,0.406,0.188,0.635C35.152,47.429,34.5,50.698,34.5,53c0,1.748,0.175,3.335,0.315,4.33 c1.851-2.486,2.579-5.596,3.345-8.869c0.899-3.84,1.918-8.192,4.938-12.259c0.15-0.2,0.425-0.26,0.641-0.142 c0.219,0.119,0.316,0.382,0.229,0.615C43.353,38.316,43,40.621,43,43c0,1.733,0.348,3.302,0.626,4.278 c1.326-2.414,2.464-5.26,3.568-8.021c2.164-5.411,4.207-10.522,7.448-11.846c0.256-0.104,0.548,0.018,0.652,0.273 s-0.019,0.548-0.273,0.652c-2.849,1.163-4.816,6.083-6.898,11.291c-1.271,3.177-2.584,6.461-4.195,9.131 c-0.098,0.162-0.277,0.256-0.469,0.239c-0.188-0.015-0.353-0.136-0.423-0.312C42.993,48.58,42,46.062,42,43 c0-0.864,0.047-2.199,0.27-3.64c-1.677,3.097-2.416,6.254-3.136,9.329c-0.885,3.779-1.721,7.349-4.264,10.146 c-0.128,0.142-0.32,0.199-0.504,0.146c-0.182-0.05-0.319-0.198-0.356-0.384C33.989,58.494,33.5,56.015,33.5,53 c0-1.286,0.185-2.824,0.485-4.265c-0.894,1.753-1.44,3.549-2.007,5.41c-0.875,2.873-1.779,5.845-4.092,8.671 C27.788,62.938,27.645,63,27.5,63z"/></g><path fill="#472b29" d="M78.326,62.1c-0.072,0-0.145-0.016-0.214-0.048c-1.902-0.899-4.5-2.443-5.103-5.454	c-0.055-0.271,0.121-0.534,0.393-0.588c0.26-0.055,0.533,0.12,0.588,0.393c0.391,1.955,1.837,3.463,4.55,4.745	c0.249,0.118,0.356,0.416,0.238,0.666C78.692,61.994,78.514,62.1,78.326,62.1z"/><path fill="#472b29" d="M67.162,33.086c-0.874,0-1.734-0.112-2.486-0.348c-0.132-0.041-0.206-0.181-0.164-0.312	c0.041-0.132,0.181-0.205,0.312-0.164c2.044,0.638,4.918,0.322,6.541-0.722c0.113-0.075,0.271-0.043,0.345,0.075	c0.075,0.115,0.041,0.271-0.075,0.345C70.503,32.688,68.807,33.086,67.162,33.086z"/><path fill="#472b29" d="M70.294,29.996c-0.639,0-1.268-0.06-1.846-0.181c-0.135-0.029-0.222-0.161-0.193-0.297	c0.029-0.134,0.155-0.218,0.297-0.193c1.556,0.327,3.492,0.179,4.938-0.379c0.126-0.05,0.273,0.014,0.323,0.144	c0.05,0.129-0.015,0.273-0.144,0.323C72.679,29.795,71.47,29.996,70.294,29.996z"/><path fill="#472b29" d="M73.297,27c-0.265,0-0.527-0.01-0.787-0.031c-0.138-0.011-0.24-0.132-0.229-0.27	c0.011-0.138,0.131-0.25,0.27-0.229c0.969,0.078,1.991,0.002,2.952-0.224c0.134-0.035,0.27,0.053,0.3,0.187	c0.031,0.134-0.052,0.269-0.187,0.3C74.863,26.91,74.073,27,73.297,27z"/><g><path fill="#fdfcef" d="M56.815,82.5c0,0,11.691,0,11.762,0c2.7,0,4.888-2.189,4.888-4.889 c0-2.355-1.666-4.321-3.884-4.784c0.026-0.206,0.043-0.415,0.043-0.628c0-2.796-2.267-5.063-5.063-5.063 c-1.651,0-3.113,0.794-4.037,2.017c-0.236-3.113-3.017-5.514-6.27-5.116c-2.379,0.291-4.346,2.13-4.784,4.486 c-0.14,0.756-0.126,1.489,0.014,2.177c-0.638-0.687-1.546-1.119-2.557-1.119c-1.85,0-3.361,1.441-3.48,3.261 c-0.84-0.186-1.754-0.174-2.717,0.188c-1.84,0.691-3.15,2.423-3.227,4.387c-0.109,2.789,2.12,5.085,4.885,5.085 c0.21,0,0.948,0,1.118,0h10.151"/><path fill="#472b29" d="M68.576,83H56.815c-0.276,0-0.5-0.224-0.5-0.5s0.224-0.5,0.5-0.5h11.762 c2.42,0,4.389-1.969,4.389-4.389c0-2.067-1.466-3.873-3.486-4.295c-0.254-0.053-0.426-0.292-0.394-0.55 c0.022-0.186,0.039-0.375,0.039-0.567c0-2.516-2.047-4.563-4.563-4.563c-1.438,0-2.765,0.663-3.638,1.818 c-0.125,0.166-0.342,0.237-0.539,0.179c-0.2-0.059-0.342-0.235-0.358-0.442c-0.104-1.377-0.778-2.671-1.85-3.549 c-1.084-0.887-2.452-1.279-3.861-1.109c-2.165,0.265-3.955,1.943-4.353,4.081c-0.124,0.667-0.12,1.335,0.013,1.986 c0.044,0.22-0.062,0.442-0.262,0.544c-0.197,0.102-0.442,0.061-0.595-0.104c-0.574-0.619-1.353-0.959-2.19-0.959 c-1.568,0-2.878,1.227-2.98,2.793c-0.01,0.146-0.082,0.28-0.199,0.367c-0.116,0.087-0.268,0.119-0.407,0.088 c-0.844-0.186-1.64-0.131-2.434,0.167c-1.669,0.626-2.836,2.209-2.903,3.938c-0.047,1.207,0.387,2.35,1.222,3.218 C40.061,81.522,41.185,82,42.389,82h11.27c0.276,0,0.5,0.224,0.5,0.5s-0.224,0.5-0.5,0.5h-11.27c-1.479,0-2.858-0.587-3.884-1.653 s-1.559-2.469-1.501-3.951c0.084-2.126,1.511-4.069,3.552-4.836c0.8-0.3,1.628-0.4,2.468-0.298 c0.377-1.823,1.996-3.182,3.904-3.182c0.685,0,1.354,0.179,1.944,0.51c-0.001-0.386,0.035-0.773,0.107-1.159 c0.476-2.562,2.619-4.573,5.214-4.891c1.688-0.206,3.321,0.267,4.616,1.328c1.004,0.823,1.716,1.951,2.038,3.193 c1.012-0.916,2.318-1.425,3.713-1.425c3.067,0,5.563,2.496,5.563,5.563c0,0.083-0.002,0.166-0.007,0.249 c2.254,0.672,3.848,2.777,3.848,5.164C73.965,80.583,71.548,83,68.576,83z"/><path fill="#fdfcef" d="M53.982,71.731c-1.808-0.119-3.365,1.13-3.476,2.789c-0.014,0.206-0.005,0.409,0.025,0.606 c-0.349-0.394-0.865-0.661-1.458-0.7c-1.085-0.071-2.022,0.645-2.158,1.62c-0.197-0.054-0.403-0.09-0.616-0.104 c-1.582-0.104-2.944,0.989-3.042,2.441"/><path fill="#472b29" d="M43.257,78.632c-0.006,0-0.011,0-0.017,0c-0.138-0.009-0.242-0.128-0.232-0.266 c0.106-1.586,1.563-2.783,3.308-2.674c0.135,0.009,0.271,0.027,0.408,0.053c0.272-0.967,1.255-1.639,2.365-1.568 c0.426,0.028,0.824,0.161,1.163,0.382c0.001-0.019,0.002-0.037,0.004-0.055c0.12-1.794,1.8-3.146,3.742-3.022 c0.138,0.009,0.242,0.128,0.232,0.266c-0.008,0.137-0.106,0.245-0.266,0.233c-1.658-0.104-3.108,1.038-3.211,2.557 c-0.012,0.186-0.004,0.372,0.023,0.551c0.017,0.11-0.041,0.217-0.141,0.265c-0.102,0.046-0.221,0.022-0.294-0.061 c-0.317-0.358-0.786-0.583-1.287-0.616c-0.959-0.064-1.774,0.555-1.893,1.405c-0.011,0.071-0.051,0.134-0.11,0.174 s-0.135,0.052-0.203,0.033c-0.189-0.051-0.38-0.084-0.567-0.096c-1.452-0.099-2.687,0.896-2.776,2.208 C43.497,78.531,43.388,78.632,43.257,78.632z"/><g><path fill="#fdfcef" d="M70.556,73.4c-1.699-0.801-3.664-0.234-4.389,1.267c-0.09,0.186-0.157,0.379-0.201,0.574"/><path fill="#472b29" d="M65.966,75.49c-0.019,0-0.037-0.002-0.057-0.006c-0.134-0.031-0.218-0.166-0.187-0.3 c0.05-0.216,0.123-0.427,0.219-0.625c0.783-1.622,2.9-2.243,4.721-1.384c0.125,0.059,0.179,0.208,0.12,0.333 c-0.06,0.125-0.21,0.177-0.333,0.12c-1.575-0.743-3.394-0.226-4.057,1.149c-0.08,0.165-0.142,0.34-0.184,0.521 C66.183,75.412,66.08,75.49,65.966,75.49z"/></g></g></svg>