<svg xmlns="http://www.w3.org/2000/svg"  viewBox="0 0 100 100" width="200px" height="200px"><path fill="#c7ede6" d="M88.564,55.879c0.3-0.616,0.566-1.264,0.796-1.943c2.633-7.77-1.349-17.078-9.733-19.325c-0.906-11.384-8.906-19.193-17.941-20.526c-10.341-1.525-19.814,5.044-22.966,15.485c-3.799-1.346-7.501-1.182-10.99,0.857c-1.583,0.732-3.031,1.812-4.33,3.233c-1.907,2.086-3.147,4.719-3.652,7.495c-0.748,0.118-1.483,0.236-2.176,0.484c-4.04,1.449-6.589,4.431-7.288,8.923c-0.435,2.797,0.443,5.587,0.933,6.714c1.935,4.455,6.422,6.98,10.981,6.312c0.227-0.033,0.557,0.069,0.752,0.233c0.241,7.12,3.698,13.417,8.884,17.014c8.321,5.772,19.027,3.994,25.781-3.921c2.894,2.96,6.338,4.398,10.384,3.876c4.023-0.519,7.147-2.739,9.426-6.349c1.053,0.283,2.051,0.691,3.083,0.804c4.042,0.442,7.324-1.165,9.732-4.8c0.922-1.391,1.793-3.194,1.793-6.354C92.035,60.836,90.741,57.869,88.564,55.879z"/><path fill="#fdfcef" d="M65.635,49.793c0,0,11.691,0,11.762,0c2.7,0,4.888-2.189,4.888-4.889c0-2.355-1.666-4.321-3.884-4.784c0.026-0.206,0.043-0.415,0.043-0.628c0-2.796-2.267-5.063-5.063-5.063c-1.651,0-3.113,0.794-4.037,2.017c-0.236-3.113-3.017-5.514-6.27-5.116c-2.379,0.291-4.346,2.13-4.784,4.486c-0.14,0.756-0.126,1.489,0.014,2.177c-0.638-0.687-1.546-1.119-2.557-1.119c-1.85,0-3.361,1.441-3.48,3.261c-0.84-0.186-1.754-0.174-2.717,0.188c-1.84,0.691-3.15,2.423-3.227,4.387c-0.109,2.789,2.12,5.085,4.885,5.085c0.21,0,0.948,0,1.118,0h10.151"/><path fill="#472b29" d="M77.397,50.293H65.635c-0.276,0-0.5-0.224-0.5-0.5s0.224-0.5,0.5-0.5h11.762c2.419,0,4.388-1.969,4.388-4.389c0-2.066-1.466-3.873-3.486-4.295c-0.255-0.053-0.426-0.292-0.394-0.55c0.023-0.187,0.039-0.375,0.039-0.567c0-2.516-2.047-4.563-4.563-4.563c-1.438,0-2.765,0.663-3.638,1.818c-0.125,0.166-0.338,0.24-0.54,0.178c-0.199-0.059-0.342-0.234-0.357-0.441c-0.104-1.377-0.779-2.671-1.851-3.549c-1.082-0.887-2.45-1.282-3.86-1.109c-2.166,0.265-3.956,1.943-4.353,4.081c-0.124,0.668-0.12,1.336,0.012,1.986c0.045,0.219-0.062,0.442-0.261,0.544c-0.198,0.102-0.442,0.059-0.595-0.104c-0.574-0.619-1.352-0.959-2.19-0.959c-1.569,0-2.878,1.227-2.981,2.794c-0.01,0.146-0.082,0.28-0.199,0.367c-0.118,0.087-0.267,0.118-0.408,0.088c-0.84-0.185-1.637-0.131-2.433,0.167c-1.669,0.626-2.836,2.209-2.903,3.938c-0.047,1.207,0.387,2.35,1.222,3.218c0.835,0.868,1.959,1.347,3.164,1.347h11.269c0.276,0,0.5,0.224,0.5,0.5s-0.224,0.5-0.5,0.5H51.21c-1.479,0-2.859-0.587-3.884-1.654c-1.025-1.066-1.558-2.469-1.5-3.95c0.083-2.126,1.51-4.069,3.551-4.835c0.801-0.3,1.628-0.399,2.468-0.299c0.377-1.822,1.997-3.182,3.905-3.182c0.684,0,1.354,0.179,1.944,0.51c0-0.385,0.035-0.772,0.107-1.159c0.476-2.562,2.62-4.573,5.215-4.891c1.677-0.208,3.319,0.266,4.615,1.328c1.004,0.823,1.716,1.951,2.038,3.193c1.012-0.916,2.319-1.425,3.714-1.425c3.067,0,5.563,2.496,5.563,5.563c0,0.083-0.002,0.166-0.007,0.249c2.254,0.672,3.848,2.777,3.848,5.164C82.786,47.876,80.369,50.293,77.397,50.293z"/><path fill="#fdfcef" d="M79.377,40.693c-1.699-0.801-3.664-0.234-4.389,1.267c-0.09,0.186-0.157,0.379-0.201,0.574"/><path fill="#472b29" d="M74.787,42.784c-0.018,0-0.037-0.002-0.056-0.006c-0.134-0.03-0.219-0.165-0.188-0.299c0.049-0.216,0.123-0.426,0.219-0.626c0.784-1.623,2.903-2.243,4.721-1.384c0.125,0.059,0.179,0.208,0.12,0.333c-0.059,0.125-0.209,0.178-0.333,0.12c-1.574-0.741-3.394-0.226-4.058,1.149c-0.08,0.166-0.141,0.341-0.182,0.521C75.004,42.705,74.901,42.784,74.787,42.784z"/><path fill="#fff" d="M18.229 47.915H8.199c-.276 0-.5-.224-.5-.5s.224-.5.5-.5h10.031c.276 0 .5.224.5.5S18.506 47.915 18.229 47.915zM21.11 47.915h-1.446c-.276 0-.5-.224-.5-.5s.224-.5.5-.5h1.446c.276 0 .5.224.5.5S21.387 47.915 21.11 47.915zM25.165 47.915h-2.546c-.276 0-.5-.224-.5-.5s.224-.5.5-.5h2.546c.276 0 .5.224.5.5S25.441 47.915 25.165 47.915zM25.165 49.78h-9.616c-.276 0-.5-.224-.5-.5s.224-.5.5-.5h9.616c.276 0 .5.224.5.5S25.441 49.78 25.165 49.78zM13.817 49.78h-.58c-.276 0-.5-.224-.5-.5s.224-.5.5-.5h.58c.276 0 .5.224.5.5S14.093 49.78 13.817 49.78zM11.44 49.78H9.984c-.276 0-.5-.224-.5-.5s.224-.5.5-.5h1.457c.276 0 .5.224.5.5S11.717 49.78 11.44 49.78zM20.576 46.05h-5.027c-.276 0-.5-.224-.5-.5s.224-.5.5-.5h5.027c.276 0 .5.224.5.5S20.853 46.05 20.576 46.05zM20.576 44.185h-1.257c-.276 0-.5-.224-.5-.5s.224-.5.5-.5h1.257c.276 0 .5.224.5.5S20.853 44.185 20.576 44.185zM17.307 51.645h-1.758c-.276 0-.5-.224-.5-.5s.224-.5.5-.5h1.758c.276 0 .5.224.5.5S17.583 51.645 17.307 51.645z"/><g><path fill="#fff" d="M71.407 21.638H61.376c-.276 0-.5-.224-.5-.5s.224-.5.5-.5h10.031c.276 0 .5.224.5.5S71.684 21.638 71.407 21.638zM74.288 21.638h-1.446c-.276 0-.5-.224-.5-.5s.224-.5.5-.5h1.446c.276 0 .5.224.5.5S74.564 21.638 74.288 21.638zM78.343 21.638h-2.546c-.276 0-.5-.224-.5-.5s.224-.5.5-.5h2.546c.276 0 .5.224.5.5S78.619 21.638 78.343 21.638zM76.317 17.909h-9.616c-.276 0-.5-.224-.5-.5s.224-.5.5-.5h9.616c.276 0 .5.224.5.5S76.593 17.909 76.317 17.909zM64.969 17.909h-.58c-.276 0-.5-.224-.5-.5s.224-.5.5-.5h.58c.276 0 .5.224.5.5S65.246 17.909 64.969 17.909zM62.592 17.909h-1.456c-.276 0-.5-.224-.5-.5s.224-.5.5-.5h1.456c.276 0 .5.224.5.5S62.869 17.909 62.592 17.909zM73.754 19.773h-5.027c-.276 0-.5-.224-.5-.5s.224-.5.5-.5h5.027c.276 0 .5.224.5.5S74.03 19.773 73.754 19.773z"/><path fill="#fff" d="M73.754 17.909h-1.257c-.276 0-.5-.224-.5-.5s.224-.5.5-.5h1.257c.276 0 .5.224.5.5S74.03 17.909 73.754 17.909zM67.271 19.773h-1.758c-.276 0-.5-.224-.5-.5s.224-.5.5-.5h1.758c.276 0 .5.224.5.5S67.547 19.773 67.271 19.773z"/></g><g><path fill="#cbc9bc" d="M26.535,50.768l9.001-14.949h27.003l9.001,14.949v1.869v11.474c0,1.919-1.499,3.475-3.348,3.475h-38.31c-1.849,0-3.348-1.556-3.348-3.475V50.768L26.535,50.768z"/><path fill="#472b29" d="M68.192,68.186h-38.31c-2.177,0-3.948-1.828-3.948-4.075V50.602l9.262-15.382h27.681l9.262,15.382v13.509C72.141,66.358,70.37,68.186,68.192,68.186z M27.135,50.935v13.176c0,1.585,1.232,2.875,2.748,2.875h38.31c1.515,0,2.748-1.29,2.748-2.875V50.935l-8.74-14.515H35.875L27.135,50.935z"/><path fill="#efeddf" d="M64.543,60.071H33.532c-1.857,0-3.376-1.519-3.376-3.376V41.367c0-1.857,1.519-3.376,3.376-3.376h31.011c1.857,0,3.376,1.519,3.376,3.376v15.328C67.919,58.552,66.4,60.071,64.543,60.071z"/><path fill="#472b29" d="M64.543,60.446H33.532c-2.068,0-3.751-1.683-3.751-3.751V41.367c0-2.068,1.683-3.751,3.751-3.751h31.011c2.068,0,3.751,1.683,3.751,3.751v15.328C68.294,58.763,66.612,60.446,64.543,60.446z M33.532,38.366c-1.655,0-3.001,1.346-3.001,3.001v15.328c0,1.655,1.346,3.001,3.001,3.001h31.011c1.655,0,3.001-1.346,3.001-3.001V41.367c0-1.655-1.346-3.001-3.001-3.001H33.532z"/><path fill="#efeddf" d="M64.543,63.318H33.532c-1.857,0-3.376-1.519-3.376-3.376V44.614c0-1.857,1.519-3.376,3.376-3.376h31.011c1.857,0,3.376,1.519,3.376,3.376v15.328C67.919,61.799,66.4,63.318,64.543,63.318z"/><path fill="#472b29" d="M64.543,63.693H33.532c-2.068,0-3.751-1.683-3.751-3.751V44.614c0-2.068,1.683-3.751,3.751-3.751h31.011c2.068,0,3.751,1.683,3.751,3.751v15.328C68.294,62.01,66.612,63.693,64.543,63.693z M33.532,41.613c-1.655,0-3.001,1.346-3.001,3.001v15.328c0,1.655,1.346,3.001,3.001,3.001h31.011c1.655,0,3.001-1.346,3.001-3.001V44.614c0-1.655-1.346-3.001-3.001-3.001H33.532z"/><g><path fill="#efeddf" d="M64.543,66.565H33.532c-1.857,0-3.376-1.519-3.376-3.376V47.861c0-1.857,1.519-3.376,3.376-3.376h31.011c1.857,0,3.376,1.519,3.376,3.376v15.328C67.919,65.046,66.4,66.565,64.543,66.565z"/><path fill="#472b29" d="M64.543,66.94H33.532c-2.068,0-3.751-1.683-3.751-3.751V47.861c0-2.068,1.683-3.751,3.751-3.751h31.011c2.068,0,3.751,1.683,3.751,3.751v15.328C68.294,65.258,66.612,66.94,64.543,66.94z M33.532,44.86c-1.655,0-3.001,1.346-3.001,3.001v15.328c0,1.655,1.346,3.001,3.001,3.001h31.011c1.655,0,3.001-1.346,3.001-3.001V47.861c0-1.655-1.346-3.001-3.001-3.001H33.532z"/></g><g><path fill="#472b29" d="M65.038 47.275H44.078c-.097 0-.175-.078-.175-.175s.078-.175.175-.175h20.959c.097 0 .175.078.175.175S65.134 47.275 65.038 47.275zM42.15 47.275H32.096c-.097 0-.175-.078-.175-.175s.078-.175.175-.175H42.15c.097 0 .175.078.175.175S42.247 47.275 42.15 47.275zM59.547 49.454h-6.436c-.097 0-.175-.078-.175-.175s.078-.175.175-.175h6.436c.097 0 .175.078.175.175S59.644 49.454 59.547 49.454zM51.372 49.454H37.586c-.097 0-.175-.078-.175-.175s.078-.175.175-.175h13.786c.097 0 .175.078.175.175S51.468 49.454 51.372 49.454zM54.057 51.633h-7.635c-.097 0-.175-.078-.175-.175s.078-.175.175-.175h7.635c.097 0 .175.078.175.175S54.154 51.633 54.057 51.633zM45.325 51.633h-2.249c-.097 0-.175-.078-.175-.175s.078-.175.175-.175h2.249c.097 0 .175.078.175.175S45.422 51.633 45.325 51.633zM52.507 53.811h-1.701c-.097 0-.175-.078-.175-.175s.078-.175.175-.175h1.701c.097 0 .175.078.175.175S52.604 53.811 52.507 53.811zM49.181 53.811h-4.554c-.097 0-.175-.078-.175-.175s.078-.175.175-.175h4.554c.097 0 .175.078.175.175S49.277 53.811 49.181 53.811z"/></g><g><path fill="#85cfcc" d="M69.137,50.769H57.059v3.728c0,2.076-1.594,3.746-3.561,3.746h-8.922c-1.964,0-3.561-1.677-3.561-3.746v-3.728H28.939h-2.184v13.342c0,1.919,1.499,3.475,3.348,3.475h37.869c1.849,0,3.348-1.556,3.348-3.475V50.769H69.137z"/><path fill="#472b29" d="M67.973,68.287h-37.87c-2.232,0-4.048-1.873-4.048-4.175V50.068h15.661v4.428c0,1.68,1.283,3.046,2.86,3.046h8.922c1.577,0,2.86-1.367,2.86-3.046v-4.428h15.661v14.043C72.021,66.414,70.205,68.287,67.973,68.287z M27.456,51.469v12.643c0,1.53,1.188,2.775,2.647,2.775h37.87c1.46,0,2.647-1.245,2.647-2.775V51.469H57.76v3.028c0,2.452-1.912,4.447-4.261,4.447h-8.922c-2.349,0-4.261-1.995-4.261-4.447v-3.028H27.456z"/></g></g><g><path fill="#fdfcef" d="M40.368,73.94c1.883,0,3.517,0,3.54,0c2.11,0,3.821-1.674,3.821-3.739c0-1.802-1.302-3.305-3.035-3.66c0.02-0.158,0.034-0.317,0.034-0.48c0-2.139-1.772-3.873-3.957-3.873c-1.29,0-2.433,0.607-3.155,1.543c-0.185-2.381-2.358-4.218-4.9-3.913c-1.859,0.223-3.397,1.629-3.739,3.431c-0.11,0.578-0.098,1.139,0.011,1.665c-0.498-0.525-1.208-0.856-1.998-0.856c-1.446,0-2.627,1.102-2.72,2.494c-0.657-0.142-1.371-0.133-2.123,0.143c-1.438,0.528-2.462,1.853-2.522,3.356c-0.085,2.133,1.657,3.889,3.818,3.889c0.164,0,0.741,0,0.874,0h7.934 M33.891,73.94h0.36"/><path fill="#472b29" d="M43.909,74.44h-3.541c-0.276,0-0.5-0.224-0.5-0.5s0.224-0.5,0.5-0.5h3.541c1.831,0,3.32-1.453,3.32-3.239c0-1.524-1.108-2.857-2.635-3.17c-0.256-0.052-0.429-0.293-0.396-0.553c0.018-0.137,0.029-0.276,0.029-0.417c0-1.86-1.551-3.373-3.457-3.373c-1.092,0-2.098,0.491-2.759,1.348c-0.127,0.164-0.34,0.233-0.539,0.173c-0.198-0.059-0.339-0.234-0.355-0.44c-0.079-1.019-0.565-1.944-1.37-2.604c-0.828-0.68-1.885-0.982-2.973-0.852c-1.646,0.197-3.006,1.442-3.307,3.028c-0.094,0.494-0.091,0.988,0.01,1.471c0.045,0.219-0.06,0.441-0.258,0.544c-0.197,0.104-0.439,0.064-0.595-0.099c-0.428-0.452-1.009-0.7-1.636-0.7c-1.169,0-2.145,0.891-2.221,2.027c-0.01,0.145-0.082,0.279-0.198,0.366c-0.116,0.088-0.264,0.12-0.407,0.089c-0.638-0.138-1.241-0.098-1.845,0.124c-1.262,0.464-2.144,1.632-2.195,2.906c-0.035,0.875,0.283,1.708,0.895,2.345c0.635,0.661,1.496,1.024,2.423,1.024h8.808c0.276,0,0.5,0.224,0.5,0.5s-0.224,0.5-0.5,0.5h-8.808c-1.185,0-2.331-0.485-3.145-1.332c-0.802-0.835-1.218-1.928-1.172-3.077c0.066-1.674,1.211-3.203,2.849-3.805c0.61-0.224,1.242-0.305,1.88-0.245c0.344-1.396,1.629-2.424,3.135-2.424c0.493,0,0.977,0.113,1.414,0.323c0.009-0.242,0.037-0.484,0.083-0.726c0.381-2.009,2.097-3.586,4.17-3.834c1.361-0.162,2.685,0.218,3.726,1.072c0.748,0.613,1.278,1.409,1.546,2.302c0.791-0.648,1.786-1.007,2.843-1.007c2.458,0,4.457,1.961,4.457,4.373c0,0.034,0,0.068-0.001,0.102c1.764,0.555,3.003,2.188,3.003,4.038C48.229,72.538,46.291,74.44,43.909,74.44z M34.25,74.44h-0.359c-0.276,0-0.5-0.224-0.5-0.5s0.224-0.5,0.5-0.5h0.359c0.276,0,0.5,0.224,0.5,0.5S34.527,74.44,34.25,74.44z"/><path fill="#472b29" d="M42.201,68.637c-0.018,0-0.037-0.002-0.055-0.006c-0.135-0.03-0.219-0.165-0.188-0.299c0.038-0.167,0.095-0.327,0.169-0.479c0.605-1.224,2.275-1.675,3.722-1.007c0.125,0.058,0.18,0.207,0.122,0.332c-0.058,0.125-0.207,0.179-0.332,0.122c-1.201-0.555-2.578-0.208-3.063,0.774c-0.058,0.116-0.101,0.24-0.13,0.367C42.418,68.558,42.315,68.637,42.201,68.637z"/><g><path fill="#472b29" d="M37.042,74.44h-1.107c-0.276,0-0.5-0.224-0.5-0.5s0.224-0.5,0.5-0.5h1.107c0.276,0,0.5,0.224,0.5,0.5S37.318,74.44,37.042,74.44z"/></g></g></svg>